<svg width="36" height="40" viewBox="0 0 36 40" fill="none" xmlns="http://www.w3.org/2000/svg">
<g filter="url(#filter0_di_2607_9333)">
<path fill-rule="evenodd" clip-rule="evenodd" d="M4.26595 9.81035L18.0762 1.94531L31.9484 9.81035L18.0762 18.1089L14.3026 15.8414L24.4835 10.0445L22.9407 9.16999L12.7929 14.9342L9.1896 12.769L19.2153 7.06131L17.663 6.19015L7.67992 11.8618L4.26595 9.81035ZM3.41797 27.1937V11.0986L17.391 19.3257V35.3555L13.5995 33.1409V21.5266L12.0991 20.6454V32.2644L8.45883 30.1381V18.5024L6.95835 17.6202V29.2617L3.41797 27.1937ZM32.6667 11.0986V27.1937L29.1262 29.2617V17.6202L27.6257 18.4159V30.1382L23.9852 32.2646V20.6012L22.4848 21.3969V33.141L18.6937 35.3555V19.3257L32.6667 11.0986Z" fill="#F9F9F9"/>
</g>
<defs>
<filter id="filter0_di_2607_9333" x="0.187026" y="0.0132245" width="35.7109" height="39.872" filterUnits="userSpaceOnUse" color-interpolation-filters="sRGB">
<feFlood flood-opacity="0" result="BackgroundImageFix"/>
<feColorMatrix in="SourceAlpha" type="matrix" values="0 0 0 0 0 0 0 0 0 0 0 0 0 0 0 0 0 0 127 0" result="hardAlpha"/>
<feOffset dy="1.29885"/>
<feGaussianBlur stdDeviation="1.61547"/>
<feColorMatrix type="matrix" values="0 0 0 0 0 0 0 0 0 0 0 0 0 0 0 0 0 0 0.2 0"/>
<feBlend mode="normal" in2="BackgroundImageFix" result="effect1_dropShadow_2607_9333"/>
<feBlend mode="normal" in="SourceGraphic" in2="effect1_dropShadow_2607_9333" result="shape"/>
<feColorMatrix in="SourceAlpha" type="matrix" values="0 0 0 0 0 0 0 0 0 0 0 0 0 0 0 0 0 0 127 0" result="hardAlpha"/>
<feOffset dy="0.289122"/>
<feGaussianBlur stdDeviation="0.0722806"/>
<feComposite in2="hardAlpha" operator="arithmetic" k2="-1" k3="1"/>
<feColorMatrix type="matrix" values="0 0 0 0 1 0 0 0 0 1 0 0 0 0 1 0 0 0 1 0"/>
<feBlend mode="normal" in2="shape" result="effect2_innerShadow_2607_9333"/>
</filter>
</defs>
</svg>
