<svg width="349" height="346" viewBox="0 0 349 346" fill="none" xmlns="http://www.w3.org/2000/svg">
<path fill-rule="evenodd" clip-rule="evenodd" d="M182.158 65.4574C221.728 70.8894 257.123 87.7921 283.132 118.051C310.586 149.992 334.481 189.971 324.283 230.807C314.242 271.015 273.133 291.5 235.466 308.921C198.768 325.895 158.562 340.251 121.225 324.726C81.7274 308.302 58.747 270.113 44.9258 229.693C28.4406 181.482 6.41182 123.672 39.1004 84.551C71.5211 45.7509 132.014 58.5736 182.158 65.4574Z" fill="#DAE5FB"/>
<rect x="155.658" y="63.1624" width="167.322" height="127.782" rx="4.5" transform="rotate(4.33991 155.658 63.1624)" fill="#F2F6FD" stroke="#A6BCE6"/>
<rect x="165.415" y="74.8086" width="147.673" height="105.508" rx="2" transform="rotate(4.33991 165.415 74.8086)" fill="#A976EA"/>
<rect x="172.212" y="80.8008" width="10.6256" height="11.417" rx="2.09454" transform="rotate(4.27471 172.212 80.8008)" fill="#F2F6FD"/>
<rect x="193.044" y="82.2607" width="10.6256" height="11.417" rx="2.09454" transform="rotate(4.27471 193.044 82.2607)" fill="#F2F6FD"/>
<rect x="213.878" y="83.7217" width="10.6256" height="11.417" rx="2.09454" transform="rotate(4.27471 213.878 83.7217)" fill="#F2F6FD"/>
<rect x="234.712" y="85.1821" width="10.6256" height="11.417" rx="2.09454" transform="rotate(4.27471 234.712 85.1821)" fill="#F2F6FD"/>
<rect x="255.545" y="86.6426" width="10.6256" height="11.417" rx="2.09454" transform="rotate(4.27471 255.545 86.6426)" fill="#F2F6FD"/>
<rect x="276.378" y="88.103" width="10.6256" height="11.417" rx="2.09454" transform="rotate(4.27471 276.378 88.103)" fill="#F2F6FD"/>
<rect x="297.21" y="89.564" width="10.6256" height="11.417" rx="2.09454" transform="rotate(4.27471 297.21 89.564)" fill="#F2F6FD"/>
<rect x="165.111" y="164.089" width="10.608" height="11.3981" rx="2.09107" transform="rotate(4.64685 165.111 164.089)" fill="#F2F6FD"/>
<rect x="185.9" y="165.682" width="10.608" height="11.3981" rx="2.09107" transform="rotate(4.64685 185.9 165.682)" fill="#F2F6FD"/>
<rect x="206.689" y="167.275" width="10.608" height="11.3981" rx="2.09107" transform="rotate(4.64685 206.689 167.275)" fill="#F2F6FD"/>
<rect x="227.479" y="168.868" width="10.608" height="11.3981" rx="2.09107" transform="rotate(4.64685 227.479 168.868)" fill="#F2F6FD"/>
<rect x="248.267" y="170.461" width="10.608" height="11.3981" rx="2.09107" transform="rotate(4.64685 248.267 170.461)" fill="#F2F6FD"/>
<rect x="269.056" y="172.054" width="10.608" height="11.3981" rx="2.09107" transform="rotate(4.64685 269.056 172.054)" fill="#F2F6FD"/>
<rect x="289.845" y="173.648" width="10.608" height="11.3981" rx="2.09107" transform="rotate(4.64685 289.845 173.648)" fill="#F2F6FD"/>
<path d="M221.162 112.61C221.222 111.843 222.091 111.429 222.725 111.865L257.016 135.426C257.651 135.862 257.575 136.822 256.881 137.153L219.33 155.069C218.635 155.401 217.842 154.856 217.902 154.088L221.162 112.61Z" fill="white"/>
<rect x="10.0693" y="180.04" width="167.322" height="127.782" rx="4.5" transform="rotate(-8.88446 10.0693 180.04)" fill="#F2F6FD" stroke="#A6BCE6"/>
<rect x="22.2314" y="189.146" width="147.673" height="105.21" rx="2" transform="rotate(-8.88446 22.2314 189.146)" fill="#E2A853"/>
<circle cx="138.915" cy="209.211" r="17.011" fill="#F2F6FD"/>
<path d="M58.7951 206.042L31.8447 250.785L38.1209 291.12C38.2906 292.211 39.3123 292.958 40.4033 292.789L178.022 271.468L123.095 233.413L109.598 248.972L58.7951 206.042Z" fill="#F2F6FD"/>
<path d="M74.6455 127.099C68.3845 127.684 62.8164 125.955 57.9411 121.913C53.0658 117.871 50.3356 112.72 49.7505 106.459C49.1654 100.198 50.8938 94.6299 54.9358 89.7546C58.9777 84.8793 64.1292 82.1492 70.3902 81.564C72.572 81.3601 74.6123 81.4326 76.5109 81.7815C78.4095 82.1304 80.2613 82.7468 82.0664 83.6307L76.4547 23.5819L110.606 20.3904L112.733 43.1578L89.966 45.2854L95.2851 102.204C95.8703 108.465 94.1418 114.033 90.0999 118.908C86.058 123.783 80.9065 126.514 74.6455 127.099Z" fill="#8299C7"/>
<path d="M263.198 303.294L240.293 273.726L248.605 267.05L260.516 282.425L265.946 239.659L276.441 240.992L271.01 283.758L286.386 271.847L292.766 280.389L263.198 303.294ZM229.048 320.286C226.162 319.919 223.822 318.578 222.028 316.262C220.234 313.945 219.52 311.344 219.886 308.458L221.885 292.716L232.38 294.049L230.381 309.791L293.349 317.787L295.348 302.045L305.843 303.377L303.844 319.119C303.477 322.006 302.136 324.346 299.82 326.14C297.504 327.934 294.903 328.648 292.016 328.282L229.048 320.286Z" fill="#8299C7"/>
</svg>
