<svg width="32" height="32" viewBox="0 0 32 32" fill="none" xmlns="http://www.w3.org/2000/svg">
<path d="M22.6667 28.0333C22.4889 28.0333 22.3111 28.0111 22.1333 27.9667C21.9556 27.9222 21.7889 27.8444 21.6333 27.7333L17.6333 25.4C17.3222 25.2222 17.0833 24.9833 16.9167 24.6833C16.75 24.3833 16.6667 24.0556 16.6667 23.7V19C16.6667 18.6444 16.75 18.3167 16.9167 18.0167C17.0833 17.7167 17.3222 17.4778 17.6333 17.3L21.6333 14.9667C21.7889 14.8556 21.9556 14.7778 22.1333 14.7333C22.3111 14.6889 22.4889 14.6667 22.6667 14.6667C22.8444 14.6667 23.0167 14.6944 23.1833 14.75C23.35 14.8056 23.5111 14.8778 23.6667 14.9667L27.6667 17.3C27.9778 17.4778 28.2222 17.7167 28.4 18.0167C28.5778 18.3167 28.6667 18.6444 28.6667 19V23.7C28.6667 24.0556 28.5778 24.3833 28.4 24.6833C28.2222 24.9833 27.9778 25.2222 27.6667 25.4L23.6667 27.7333C23.5111 27.8222 23.35 27.8944 23.1833 27.95C23.0167 28.0056 22.8444 28.0333 22.6667 28.0333ZM2.66667 26.6667V22.9333C2.66667 22.2 2.85556 21.5111 3.23334 20.8667C3.61112 20.2222 4.13334 19.7333 4.80001 19.4C5.93334 18.8222 7.21112 18.3333 8.63334 17.9333C10.0556 17.5333 11.6222 17.3333 13.3333 17.3333H13.8C13.9333 17.3333 14.0667 17.3556 14.2 17.4C13.5556 19 13.2889 20.5889 13.4 22.1667C13.5111 23.7444 14.0444 25.2444 15 26.6667H2.66667ZM13.3333 16C11.8667 16 10.6111 15.4778 9.56667 14.4333C8.52223 13.3889 8.00001 12.1333 8.00001 10.6667C8.00001 9.2 8.52223 7.94445 9.56667 6.9C10.6111 5.85556 11.8667 5.33334 13.3333 5.33334C14.8 5.33334 16.0556 5.85556 17.1 6.9C18.1445 7.94445 18.6667 9.2 18.6667 10.6667C18.6667 12.1333 18.1445 13.3889 17.1 14.4333C16.0556 15.4778 14.8 16 13.3333 16ZM19.5333 18.4667L22.6667 20.3L25.8 18.4667L22.6667 16.6667L19.5333 18.4667ZM23.6667 25.4L26.6667 23.6667V20L23.6667 21.7667V25.4ZM18.6667 23.6667L21.6667 25.4333V21.8L18.6667 20.0333V23.6667Z" fill="#212121"/>
</svg>
