<svg width="32" height="32" viewBox="0 0 32 32" fill="none" xmlns="http://www.w3.org/2000/svg">
<path d="M12.5333 22L16 18.5333L19.4667 22L21.3333 20.1333L17.8667 16.6667L21.3333 13.2L19.4667 11.3333L16 14.8L12.5333 11.3333L10.6667 13.2L14.1333 16.6667L10.6667 20.1333L12.5333 22ZM9.33334 28C8.60001 28 7.97223 27.7389 7.45001 27.2167C6.92779 26.6944 6.66668 26.0667 6.66668 25.3333V8H5.33334V5.33333H12V4H20V5.33333H26.6667V8H25.3333V25.3333C25.3333 26.0667 25.0722 26.6944 24.55 27.2167C24.0278 27.7389 23.4 28 22.6667 28H9.33334Z" fill="#212121"/>
</svg>
