<svg width="32" height="32" viewBox="0 0 32 32" fill="none" xmlns="http://www.w3.org/2000/svg">
  <path
    d="M14.1667 27H8C7.26667 27 6.63889 26.7389 6.11667 26.2167C5.59444 25.6944 5.33333 25.0667 5.33333 24.3333V7H4V4.33333H10.6667V3H18.6667V4.33333H25.3333V7H24V14C23.1667 14 22.1316 14 21.3333 14V7H8V24.3333H14.1667C14.1667 24.903 14.1667 26.403 14.1667 27ZM10.6667 21.6667H13.3333C13.3333 19.5846 13.3333 18.903 13.3333 16.8667V9.66667H10.6667V21.6667ZM16 14C16.6667 14 17.6667 14 18.6667 14V9.66667H16V14Z"
    fill="#1C1B1F" />
  <path d="M16.6667 25.8197V28.4864H24.5V25.8197H16.6667Z" fill="#1C1B1F" />
  <path d="M16.6667 16.403V19.0697H28.6667V16.403H16.6667Z" fill="#1C1B1F" />
  <path d="M16.6667 21.1531V23.8197H27V21.1531H16.6667Z" fill="#1C1B1F" />
</svg>