<svg width="32" height="32" viewBox="0 0 32 32" fill="none" xmlns="http://www.w3.org/2000/svg">
  <path
    d="M15 28H9.33334C8.60001 28 7.97223 27.7389 7.45001 27.2167C6.92779 26.6944 6.66668 26.0667 6.66668 25.3333V8H5.33334V5.33333H12V4H20V5.33333H26.6667V8H25.3333V13.7333C24.9556 13.6222 24.5167 13.5278 24.0167 13.45C23.5167 13.3722 23.0667 13.3333 22.6667 13.3333V8H9.33334V25.3333H13.7333C13.8667 25.8 14.0445 26.2611 14.2667 26.7167C14.4889 27.1722 14.7333 27.6 15 28ZM12 22.6667H13.3333C13.3333 21.2667 13.5556 20.1167 14 19.2167L14.6667 17.8667V10.6667H12V22.6667ZM17.3333 15C17.7111 14.7556 18.1389 14.5111 18.6167 14.2667C19.0945 14.0222 19.5556 13.8444 20 13.7333V10.6667H17.3333V15Z"
    fill="#1C1B1F" />
  <path
    d="M21.7076 16C21.9349 15.4513 22.7122 15.4513 22.9394 16L24.1946 19.0302C24.4616 19.6748 24.9706 20.1891 25.6125 20.4628L28.5386 21.7103C29.0789 21.9406 29.0789 22.7064 28.5386 22.9368L25.6125 24.1843C24.9706 24.4579 24.4616 24.9722 24.1946 25.6168L22.9394 28.647C22.7122 29.1958 21.9349 29.1958 21.7076 28.647L20.4586 25.6316C20.1879 24.9782 19.6688 24.4591 19.0154 24.1885L16 22.9394C15.4513 22.7121 15.4513 21.9349 16 21.7076L19.0154 20.4586C19.6688 20.1879 20.1879 19.6688 20.4586 19.0154L21.7076 16Z"
    fill="#1C1B1F" />
</svg>