<svg width="32" height="32" viewBox="0 0 32 32" fill="none" xmlns="http://www.w3.org/2000/svg">
<path fill-rule="evenodd" clip-rule="evenodd" d="M6.67707 25.7122V23.692H2.63671C2.08116 23.692 1.60558 23.4942 1.20996 23.0986C0.814341 22.703 0.616531 22.2274 0.616531 21.6718V9.55076C0.616531 8.99521 0.814341 8.51963 1.20996 8.12401C1.60558 7.72839 2.08116 7.53058 2.63671 7.53058H18.7981C19.3537 7.53058 19.8293 7.72839 20.2249 8.12401C20.6205 8.51963 20.8183 8.99521 20.8183 9.55076V21.6718C20.8183 22.2274 20.6205 22.703 20.2249 23.0986C19.8293 23.4942 19.3537 23.692 18.7981 23.692H14.7578V25.7122H6.67707ZM2.63671 21.6718H18.7981V9.55076H2.63671V21.6718Z" fill="#212121"/>
<path d="M5.29259 25.376H16.1423V27.6159H5.29259V25.376Z" fill="#212121"/>
<path d="M8.65332 11.5559H17.1411V13.4994H8.65332V11.5559Z" fill="#212121"/>
<path d="M4.31151 11.5559H7.31641V13.4994H4.31151V11.5559Z" fill="#212121"/>
<path fill-rule="evenodd" clip-rule="evenodd" d="M18.1083 4.48406C18.1083 4.42884 18.1531 4.38406 18.2083 4.38406H30.5816C30.6368 4.38406 30.6816 4.42884 30.6816 4.48406V27.5159C30.6816 27.5712 30.6368 27.6159 30.5816 27.6159H18.2083C18.1531 27.6159 18.1083 27.5712 18.1083 27.5159V24.9093C18.1083 24.8541 18.1531 24.8093 18.2083 24.8093H19.0571C20.6035 24.8093 21.8571 23.5557 21.8571 22.0093V13.923C21.8571 13.8678 21.9019 13.823 21.9571 13.823H28.7808C28.8361 13.823 28.8808 13.7782 28.8808 13.723V12.1523C28.8808 12.0971 28.8361 12.0524 28.7808 12.0524H21.9571C21.9019 12.0524 21.8571 12.0076 21.8571 11.9524V10.4726C21.8571 10.4174 21.9019 10.3726 21.9571 10.3726H28.7809C28.8361 10.3726 28.8809 10.3278 28.8809 10.2726V8.70195C28.8809 8.64672 28.8361 8.60195 28.7809 8.60195H21.8516C21.8057 8.60195 21.7659 8.5706 21.7535 8.52642C21.4232 7.34794 20.3411 6.48371 19.0571 6.48371H18.2083C18.1531 6.48371 18.1083 6.43894 18.1083 6.38371V4.48406Z" fill="#212121"/>
<path d="M8.65332 14.5663H17.1411V16.5097H8.65332V14.5663Z" fill="#212121"/>
<path d="M4.31151 14.5663H7.31641V16.5097H4.31151V14.5663Z" fill="#212121"/>
<path d="M8.65332 17.5564H17.1411V19.4999H8.65332V17.5564Z" fill="#212121"/>
<path d="M4.31151 17.5564H7.31641V19.4999H4.31151V17.5564Z" fill="#212121"/>
</svg>
