<svg width="32" height="32" viewBox="0 0 32 32" fill="none" xmlns="http://www.w3.org/2000/svg">
<path d="M16 22.6667C16.3778 22.6667 16.6944 22.5389 16.95 22.2833C17.2056 22.0278 17.3333 21.7111 17.3333 21.3333C17.3333 20.9556 17.2056 20.6389 16.95 20.3833C16.6944 20.1278 16.3778 20 16 20C15.6222 20 15.3056 20.1278 15.05 20.3833C14.7944 20.6389 14.6667 20.9556 14.6667 21.3333C14.6667 21.7111 14.7944 22.0278 15.05 22.2833C15.3056 22.5389 15.6222 22.6667 16 22.6667ZM14.6667 17.3333H17.3333V9.33333H14.6667V17.3333ZM16 29.3333C14.1556 29.3333 12.4222 28.9833 10.8 28.2833C9.17777 27.5833 7.76666 26.6333 6.56666 25.4333C5.36666 24.2333 4.41666 22.8222 3.71666 21.2C3.01666 19.5778 2.66666 17.8444 2.66666 16C2.66666 14.1556 3.01666 12.4222 3.71666 10.8C4.41666 9.17777 5.36666 7.76666 6.56666 6.56666C7.76666 5.36666 9.17777 4.41666 10.8 3.71666C12.4222 3.01666 14.1556 2.66666 16 2.66666C17.8444 2.66666 19.5778 3.01666 21.2 3.71666C22.8222 4.41666 24.2333 5.36666 25.4333 6.56666C26.6333 7.76666 27.5833 9.17777 28.2833 10.8C28.9833 12.4222 29.3333 14.1556 29.3333 16C29.3333 17.8444 28.9833 19.5778 28.2833 21.2C27.5833 22.8222 26.6333 24.2333 25.4333 25.4333C24.2333 26.6333 22.8222 27.5833 21.2 28.2833C19.5778 28.9833 17.8444 29.3333 16 29.3333Z" fill="#212121"/>
</svg>
