<svg width="32" height="32" viewBox="0 0 32 32" fill="none" xmlns="http://www.w3.org/2000/svg">
<path d="M0 24V21.9C0 20.9444 0.488889 20.1667 1.46667 19.5667C2.44444 18.9667 3.73333 18.6667 5.33333 18.6667C5.62222 18.6667 5.9 18.6722 6.16667 18.6833C6.43333 18.6944 6.68889 18.7222 6.93333 18.7667C6.62222 19.2333 6.38889 19.7222 6.23333 20.2333C6.07778 20.7444 6 21.2778 6 21.8333V24H0ZM8 24V21.8333C8 21.1222 8.19444 20.4722 8.58333 19.8833C8.97222 19.2944 9.52222 18.7778 10.2333 18.3333C10.9444 17.8889 11.7944 17.5556 12.7833 17.3333C13.7722 17.1111 14.8444 17 16 17C17.1778 17 18.2611 17.1111 19.25 17.3333C20.2389 17.5556 21.0889 17.8889 21.8 18.3333C22.5111 18.7778 23.0556 19.2944 23.4333 19.8833C23.8111 20.4722 24 21.1222 24 21.8333V24H8ZM26 24V21.8333C26 21.2556 25.9278 20.7111 25.7833 20.2C25.6389 19.6889 25.4222 19.2111 25.1333 18.7667C25.3778 18.7222 25.6278 18.6944 25.8833 18.6833C26.1389 18.6722 26.4 18.6667 26.6667 18.6667C28.2667 18.6667 29.5556 18.9611 30.5333 19.55C31.5111 20.1389 32 20.9222 32 21.9V24H26ZM5.33333 17.3333C4.6 17.3333 3.97222 17.0722 3.45 16.55C2.92778 16.0278 2.66667 15.4 2.66667 14.6667C2.66667 13.9111 2.92778 13.2778 3.45 12.7667C3.97222 12.2556 4.6 12 5.33333 12C6.08889 12 6.72222 12.2556 7.23333 12.7667C7.74444 13.2778 8 13.9111 8 14.6667C8 15.4 7.74444 16.0278 7.23333 16.55C6.72222 17.0722 6.08889 17.3333 5.33333 17.3333ZM26.6667 17.3333C25.9333 17.3333 25.3056 17.0722 24.7833 16.55C24.2611 16.0278 24 15.4 24 14.6667C24 13.9111 24.2611 13.2778 24.7833 12.7667C25.3056 12.2556 25.9333 12 26.6667 12C27.4222 12 28.0556 12.2556 28.5667 12.7667C29.0778 13.2778 29.3333 13.9111 29.3333 14.6667C29.3333 15.4 29.0778 16.0278 28.5667 16.55C28.0556 17.0722 27.4222 17.3333 26.6667 17.3333ZM16 16C14.8889 16 13.9444 15.6111 13.1667 14.8333C12.3889 14.0556 12 13.1111 12 12C12 10.8667 12.3889 9.91667 13.1667 9.15C13.9444 8.38333 14.8889 8 16 8C17.1333 8 18.0833 8.38333 18.85 9.15C19.6167 9.91667 20 10.8667 20 12C20 13.1111 19.6167 14.0556 18.85 14.8333C18.0833 15.6111 17.1333 16 16 16Z" fill="#212121"/>
</svg>
