<svg width="32" height="32" viewBox="0 0 32 32" fill="none" xmlns="http://www.w3.org/2000/svg">
<path d="M14.6667 22.6667H17.3333V14.6667H14.6667V22.6667ZM16 12C16.3778 12 16.6944 11.8722 16.95 11.6167C17.2056 11.3611 17.3333 11.0444 17.3333 10.6667C17.3333 10.2889 17.2056 9.97222 16.95 9.71666C16.6944 9.46111 16.3778 9.33333 16 9.33333C15.6222 9.33333 15.3056 9.46111 15.05 9.71666C14.7944 9.97222 14.6667 10.2889 14.6667 10.6667C14.6667 11.0444 14.7944 11.3611 15.05 11.6167C15.3056 11.8722 15.6222 12 16 12ZM16 29.3333C14.1556 29.3333 12.4222 28.9833 10.8 28.2833C9.17778 27.5833 7.76667 26.6333 6.56667 25.4333C5.36667 24.2333 4.41667 22.8222 3.71667 21.2C3.01667 19.5778 2.66667 17.8444 2.66667 16C2.66667 14.1556 3.01667 12.4222 3.71667 10.8C4.41667 9.17777 5.36667 7.76666 6.56667 6.56666C7.76667 5.36666 9.17778 4.41666 10.8 3.71666C12.4222 3.01666 14.1556 2.66666 16 2.66666C17.8444 2.66666 19.5778 3.01666 21.2 3.71666C22.8222 4.41666 24.2333 5.36666 25.4333 6.56666C26.6333 7.76666 27.5833 9.17777 28.2833 10.8C28.9833 12.4222 29.3333 14.1556 29.3333 16C29.3333 17.8444 28.9833 19.5778 28.2833 21.2C27.5833 22.8222 26.6333 24.2333 25.4333 25.4333C24.2333 26.6333 22.8222 27.5833 21.2 28.2833C19.5778 28.9833 17.8444 29.3333 16 29.3333Z" fill="#212121"/>
</svg>
