<svg width="32" height="32" viewBox="0 0 32 32" fill="none" xmlns="http://www.w3.org/2000/svg">
<path d="M4.28169 21.3099L2.8169 11.0563H7.21127C7.21127 9.86009 7.54085 8.77371 8.2 7.79718C8.85916 6.82066 9.75024 6.10047 10.8732 5.63662C10.9465 4.87981 11.2639 4.25117 11.8254 3.7507C12.3869 3.25023 13.046 3 13.8028 3C14.6085 3 15.2981 3.28685 15.8718 3.86056C16.4455 4.43427 16.7324 5.12394 16.7324 5.92958C16.7324 6.73521 16.4455 7.42488 15.8718 7.99859C15.2981 8.5723 14.6085 8.85915 13.8028 8.85915C13.4854 8.85915 13.1925 8.81643 12.9239 8.73099C12.6554 8.64554 12.3869 8.50516 12.1183 8.30986C11.5324 8.50516 11.0624 8.85915 10.7085 9.37183C10.3545 9.88451 10.1775 10.446 10.1775 11.0563H29.1831L27.7183 21.3099H23.8L24.0563 18.7831C24.1784 17.5869 23.8427 16.5493 23.0493 15.6704C22.2559 14.7915 21.261 14.3521 20.0648 14.3521H11.9352C10.739 14.3521 9.74413 14.7915 8.95071 15.6704C8.15728 16.5493 7.8216 17.5869 7.94366 18.7831L8.2 21.3099H4.28169ZM11.1296 29L10.1408 18.5634C10.092 18.0263 10.2385 17.5563 10.5803 17.1535C10.9221 16.7507 11.3737 16.5493 11.9352 16.5493H20.0648C20.6263 16.5493 21.0779 16.7507 21.4197 17.1535C21.7615 17.5563 21.908 18.0263 21.8592 18.5634L20.8704 29H11.1296Z" fill="#212121"/>
</svg>
