<svg width="32" height="32" viewBox="0 0 32 32" fill="none" xmlns="http://www.w3.org/2000/svg">
<path d="M16 18L24 12.6667L16 7.33333V18ZM12.0333 22.6667C11.3 22.6667 10.6722 22.4056 10.15 21.8833C9.62779 21.3611 9.36668 20.7333 9.36668 20V5.33333C9.36668 4.6 9.62779 3.97222 10.15 3.45C10.6722 2.92778 11.3 2.66666 12.0333 2.66666H26.7C27.4333 2.66666 28.0611 2.92778 28.5833 3.45C29.1056 3.97222 29.3667 4.6 29.3667 5.33333V20C29.3667 20.7333 29.1056 21.3611 28.5833 21.8833C28.0611 22.4056 27.4333 22.6667 26.7 22.6667H12.0333ZM7.63334 29.1667C6.90001 29.2778 6.24446 29.1 5.66668 28.6333C5.0889 28.1667 4.75557 27.5667 4.66668 26.8333L2.86668 12.2667C2.77779 11.5333 2.96112 10.8778 3.41668 10.3C3.87223 9.72222 4.46668 9.38889 5.20001 9.3L6.70001 9.13333V21.3333C6.70001 22.4444 7.0889 23.3889 7.86668 24.1667C8.64446 24.9444 9.5889 25.3333 10.7 25.3333H24.4C24.2667 25.8667 24 26.3278 23.6 26.7167C23.2 27.1056 22.7111 27.3333 22.1333 27.4L7.63334 29.1667Z" fill="#212121"/>
</svg>
