<svg width="32" height="32" viewBox="0 0 32 32" fill="none" xmlns="http://www.w3.org/2000/svg">
<path fill-rule="evenodd" clip-rule="evenodd" d="M3.60721 2.45599L1.8425 4.27762L4.19568 6.63597C4.06523 6.93095 4 7.2523 4 7.60001V22C4 22.66 4.235 23.225 4.705 23.695C5.175 24.165 5.74 24.4 6.4 24.4H11.2V26.8H20.8V24.4H21.9208L27.7437 30.2358L29.6223 28.3572L3.60721 2.45599ZM19.526 22L6.4 8.84513V22H19.526ZM25.6 7.60001V20.8708L27.7722 23.0335C27.9241 22.7197 28 22.3752 28 22V7.60001C28 6.94001 27.765 6.37501 27.295 5.90501C26.825 5.43501 26.26 5.20001 25.6 5.20001H9.8603L12.2708 7.60001H25.6Z" fill="#212121"/>
</svg>
