<svg width="32" height="32" viewBox="0 0 32 32" fill="none" xmlns="http://www.w3.org/2000/svg">
<path d="M10.6667 21.3333H13.3333V10.6667H10.6667V21.3333ZM16 21.3333L24 16L16 10.6667V21.3333ZM16 29.3333C14.1555 29.3333 12.4222 28.9833 10.8 28.2833C9.17777 27.5833 7.76666 26.6333 6.56666 25.4333C5.36666 24.2333 4.41666 22.8222 3.71666 21.2C3.01666 19.5778 2.66666 17.8444 2.66666 16C2.66666 14.1556 3.01666 12.4222 3.71666 10.8C4.41666 9.17778 5.36666 7.76667 6.56666 6.56667C7.76666 5.36667 9.17777 4.41667 10.8 3.71667C12.4222 3.01667 14.1555 2.66667 16 2.66667C17.8444 2.66667 19.5778 3.01667 21.2 3.71667C22.8222 4.41667 24.2333 5.36667 25.4333 6.56667C26.6333 7.76667 27.5833 9.17778 28.2833 10.8C28.9833 12.4222 29.3333 14.1556 29.3333 16C29.3333 17.8444 28.9833 19.5778 28.2833 21.2C27.5833 22.8222 26.6333 24.2333 25.4333 25.4333C24.2333 26.6333 22.8222 27.5833 21.2 28.2833C19.5778 28.9833 17.8444 29.3333 16 29.3333Z" fill="#212121"/>
</svg>
