<svg width="32" height="32" viewBox="0 0 32 32" fill="none" xmlns="http://www.w3.org/2000/svg">
<path d="M11.2 26.8V24.4H6.4C5.74 24.4 5.175 24.165 4.705 23.695C4.235 23.225 4 22.66 4 22V7.59998C4 6.93998 4.235 6.37498 4.705 5.90498C5.175 5.43498 5.74 5.19998 6.4 5.19998H25.6C26.26 5.19998 26.825 5.43498 27.295 5.90498C27.765 6.37498 28 6.93998 28 7.59998V22C28 22.66 27.765 23.225 27.295 23.695C26.825 24.165 26.26 24.4 25.6 24.4H20.8V26.8H11.2ZM6.4 22H25.6V7.59998H6.4V22Z" fill="#212121"/>
</svg>
