<svg width="32" height="32" viewBox="0 0 32 32" fill="none" xmlns="http://www.w3.org/2000/svg">
<path d="M5.33334 5.33334L8 10.6667H12L9.33334 5.33334H12L14.6667 10.6667H18.6667L16 5.33334H18.6667L21.3333 10.6667H25.3333L22.6667 5.33334H26.6667C27.4 5.33334 28.0278 5.59445 28.55 6.11667C29.0722 6.63889 29.3333 7.26667 29.3333 8V24C29.3333 24.7333 29.0722 25.3611 28.55 25.8833C28.0278 26.4056 27.4 26.6667 26.6667 26.6667H5.33334C4.6 26.6667 3.97223 26.4056 3.45001 25.8833C2.92778 25.3611 2.66667 24.7333 2.66667 24V8C2.66667 7.26667 2.92778 6.63889 3.45001 6.11667C3.97223 5.59445 4.6 5.33334 5.33334 5.33334Z" fill="#212121"/>
</svg>
