<svg width="32" height="32" viewBox="0 0 32 32" fill="none" xmlns="http://www.w3.org/2000/svg">
  <path fill-rule="evenodd" clip-rule="evenodd"
    d="M22.2362 12.8555C22.2362 13.3485 22.199 13.8329 22.1274 14.306C21.7271 14.2101 21.3141 14.147 20.8914 14.1198C20.7074 12.4724 19.7499 10.9239 18.2032 10.0589C17.4818 9.65446 16.7075 9.44696 15.9303 9.40757C15.6084 10.0032 15.131 10.5018 14.5488 10.838C13.9743 11.1695 13.3095 11.3424 12.5929 11.3126C12.3114 11.3011 12.0251 11.2713 11.7619 11.2069C10.2305 10.7727 9.1075 9.3701 9.1248 7.70428C9.14209 5.90589 10.4822 4.37264 12.2115 4.10653C12.1178 4.1072 12.0261 4.11402 11.932 4.12101C11.8918 4.12399 11.8512 4.127 11.8099 4.12959C9.29772 4.54268 7.38404 6.79932 7.42055 9.42678C7.43112 10.2539 7.63862 11.0282 7.99311 11.7209C8.67039 11.7017 9.33999 11.866 9.92216 12.2022C10.4966 12.5336 10.9789 13.0236 11.3113 13.6586C11.442 13.9074 11.5544 14.1495 11.6293 14.4012C12.0347 15.9527 11.3814 17.6425 9.92024 18.4658C8.35433 19.3497 6.35611 18.9558 5.26094 17.5916C5.30876 17.6736 5.36144 17.7507 5.41552 17.8299L5.41556 17.8299C5.43752 17.8621 5.4597 17.8946 5.48189 17.9279C7.09584 19.8972 10.0067 20.4256 12.2643 19.0807C12.9752 18.658 13.542 18.0912 13.9647 17.4379C13.6093 16.8615 13.4171 16.1986 13.4171 15.5261C13.4171 14.8633 13.5996 14.2004 13.9839 13.5952C14.1347 13.3579 14.2769 13.1494 14.4527 12.9631C15.5921 11.8237 17.3924 11.5393 18.843 12.3962C19.5327 12.8035 20.0457 13.4116 20.3467 14.1048C16.3312 14.1409 13.0873 17.4072 13.0873 21.4311C13.0873 21.7762 13.1111 22.1157 13.1573 22.448C12.9825 22.4575 12.8065 22.4623 12.6294 22.4623C7.32352 22.4623 3.02255 18.1613 3.02255 12.8555C3.02255 7.54961 7.32352 3.24864 12.6294 3.24864C17.9352 3.24864 22.2362 7.54961 22.2362 12.8555ZM17.7583 23.843V28.7514H19.1607V23.843H20.5631V22.4406H16.3559V23.843H17.7583ZM17.7583 17.5322V21.0382H19.1607V17.5322H17.7583ZM20.5631 19.6358V21.0382H24.7703V19.6358H23.3679V17.5322H21.9655V19.6358H20.5631ZM21.9655 22.4406V28.7514H23.3679V22.4406H21.9655ZM26.1727 26.6478V28.7514H27.5751V26.6478H28.9775V25.2454H24.7703V26.6478H26.1727ZM26.1727 17.5322V23.843H27.5751V17.5322H26.1727Z"
    fill="#212121" />
</svg>