<svg width="32" height="32" viewBox="0 0 32 32" fill="none" xmlns="http://www.w3.org/2000/svg">
<path d="M6.66666 21.3333H20L15.4 15.3333L12.3333 19.3333L10.2667 16.6667L6.66666 21.3333ZM5.33332 26.6667C4.59999 26.6667 3.97221 26.4056 3.44999 25.8833C2.92777 25.3611 2.66666 24.7333 2.66666 24V8C2.66666 7.26667 2.92777 6.63889 3.44999 6.11667C3.97221 5.59445 4.59999 5.33334 5.33332 5.33334H21.3333C22.0667 5.33334 22.6944 5.59445 23.2167 6.11667C23.7389 6.63889 24 7.26667 24 8V14L29.3333 8.66667V23.3333L24 18V24C24 24.7333 23.7389 25.3611 23.2167 25.8833C22.6944 26.4056 22.0667 26.6667 21.3333 26.6667H5.33332Z" fill="#212121"/>
</svg>
