<svg width="32" height="32" viewBox="0 0 32 32" fill="none" xmlns="http://www.w3.org/2000/svg">
<path d="M12.3335 29.3333L11.8002 25.0667C11.5113 24.9556 11.239 24.8222 10.9835 24.6667C10.7279 24.5111 10.4779 24.3444 10.2335 24.1667L6.26683 25.8333L2.60016 19.5L6.03349 16.9C6.01127 16.7444 6.00016 16.5944 6.00016 16.45V15.55C6.00016 15.4056 6.01127 15.2556 6.03349 15.1L2.60016 12.5L6.26683 6.16666L10.2335 7.83333C10.4779 7.65555 10.7335 7.48889 11.0002 7.33333C11.2668 7.17777 11.5335 7.04444 11.8002 6.93333L12.3335 2.66666H19.6668L20.2002 6.93333C20.4891 7.04444 20.7613 7.17777 21.0168 7.33333C21.2724 7.48889 21.5224 7.65555 21.7668 7.83333L25.7335 6.16666L29.4002 12.5L25.9668 15.1C25.9891 15.2556 26.0002 15.4056 26.0002 15.55V16.45C26.0002 16.5944 25.9779 16.7444 25.9335 16.9L29.3668 19.5L25.7002 25.8333L21.7668 24.1667C21.5224 24.3444 21.2668 24.5111 21.0002 24.6667C20.7335 24.8222 20.4668 24.9556 20.2002 25.0667L19.6668 29.3333H12.3335ZM16.0668 20.6667C17.3557 20.6667 18.4557 20.2111 19.3668 19.3C20.2779 18.3889 20.7335 17.2889 20.7335 16C20.7335 14.7111 20.2779 13.6111 19.3668 12.7C18.4557 11.7889 17.3557 11.3333 16.0668 11.3333C14.7557 11.3333 13.6502 11.7889 12.7502 12.7C11.8502 13.6111 11.4002 14.7111 11.4002 16C11.4002 17.2889 11.8502 18.3889 12.7502 19.3C13.6502 20.2111 14.7557 20.6667 16.0668 20.6667Z" fill="#212121"/>
</svg>
