<svg width="32" height="32" viewBox="0 0 32 32" fill="none" xmlns="http://www.w3.org/2000/svg">
  <path
    d="M15.8667 29.3333L21.9333 13.3333H24.7333L30.8 29.3333H28L26.5667 25.2667H20.1L18.6667 29.3333H15.8667ZM5.33333 25.3333L3.46666 23.4667L10.2 16.7333C9.42222 15.9556 8.71666 15.0667 8.08333 14.0667C7.45 13.0667 6.86666 11.9333 6.33333 10.6667H9.13333C9.57777 11.5333 10.0222 12.2889 10.4667 12.9333C10.9111 13.5778 11.4444 14.2222 12.0667 14.8667C12.8 14.1333 13.5611 13.1056 14.35 11.7833C15.1389 10.4611 15.7333 9.2 16.1333 8H1.33333V5.33333H10.6667V2.66667H13.3333V5.33333H22.6667V8H18.8C18.3333 9.6 17.6333 11.2444 16.7 12.9333C15.7667 14.6222 14.8444 15.9111 13.9333 16.8L17.1333 20.0667L16.1333 22.8L12.0667 18.6333L5.33333 25.3333ZM20.9333 22.9333H25.7333L23.3333 16.1333L20.9333 22.9333Z"
    fill="#1C1B1F" />
</svg>