<svg width="32" height="32" viewBox="0 0 32 32" fill="none" xmlns="http://www.w3.org/2000/svg">
<path d="M17.3333 18.6667V14.6667H13.3333V12H17.3333V8H20V12H24V14.6667H20V18.6667H17.3333ZM5.33332 29.3333C4.59999 29.3333 3.97221 29.0722 3.44999 28.55C2.92777 28.0278 2.66666 27.4 2.66666 26.6667V10.6667C2.66666 9.93333 2.92777 9.30555 3.44999 8.78333C3.97221 8.26111 4.59999 8 5.33332 8H7.99999V5.33333C7.99999 4.6 8.2611 3.97222 8.78332 3.45C9.30555 2.92778 9.93332 2.66666 10.6667 2.66666H26.6667C27.4 2.66666 28.0278 2.92778 28.55 3.45C29.0722 3.97222 29.3333 4.6 29.3333 5.33333V21.3333C29.3333 22.0667 29.0722 22.6944 28.55 23.2167C28.0278 23.7389 27.4 24 26.6667 24H24V26.6667C24 27.4 23.7389 28.0278 23.2167 28.55C22.6944 29.0722 22.0667 29.3333 21.3333 29.3333H5.33332ZM10.6667 21.3333H26.6667V5.33333H10.6667V21.3333Z" fill="#212121"/>
</svg>
