<svg width="32" height="32" viewBox="0 0 32 32" fill="none" xmlns="http://www.w3.org/2000/svg">
  <path
    d="M8.22677 25.4834C7.71629 25.4834 7.2842 25.3066 6.93052 24.9529C6.57684 24.5992 6.39999 24.1671 6.39999 23.6566V14.1733C6.39999 13.6629 6.57684 13.2308 6.93052 12.8771C7.2842 12.5234 7.71629 12.3466 8.22677 12.3466H23.7732C24.2837 12.3466 24.7158 12.5234 25.0695 12.8771C25.4232 13.2308 25.6 13.6629 25.6 14.1733V23.6566C25.6 24.1671 25.4232 24.5992 25.0695 24.9529C24.7158 25.3066 24.2837 25.4834 23.7732 25.4834H8.22677ZM8.22677 23.9676H23.7732C23.851 23.9676 23.9223 23.9352 23.9869 23.8704C24.0518 23.8057 24.0842 23.7344 24.0842 23.6566V14.1733C24.0842 14.0955 24.0518 14.0243 23.9869 13.9596C23.9223 13.8948 23.851 13.8624 23.7732 13.8624H8.22677C8.14896 13.8624 8.07772 13.8948 8.01305 13.9596C7.9482 14.0243 7.91578 14.0955 7.91578 14.1733V23.6566C7.91578 23.7344 7.9482 23.8057 8.01305 23.8704C8.07772 23.9352 8.14896 23.9676 8.22677 23.9676ZM14.2316 22.4907L19.5952 18.915L14.2316 15.3392V22.4907ZM8.16842 10.9475V9.4317H23.8316V10.9475H8.16842ZM11.2 8.03238V6.51659H20.8V8.03238H11.2Z"
    fill="#212121" />
</svg>