<svg width="32" height="32" viewBox="0 0 32 32" fill="none" xmlns="http://www.w3.org/2000/svg">
  <path fill-rule="evenodd" clip-rule="evenodd"
    d="M15.9654 20.3012L14.1333 22.1333L8.46666 16.4667L10.3333 14.6L14.1288 18.3955L14.8792 17.6451L14.8837 17.6496L15.2611 17.2723L15.2565 17.2677L16.766 15.7582L17.1196 16.1118L17.4731 16.4654L17.1014 16.8371L17.5617 17.2974L17.9063 16.953L18.2597 17.3067L18.6132 17.6603L17.1016 19.1709L17.0987 19.168L16.7209 19.5457L16.7238 19.5486L16.6754 19.5969L16.3217 19.9504L15.968 20.3039L15.9654 20.3012ZM10.8 28.2833C12.4222 28.9833 14.1556 29.3333 16 29.3333C17.8444 29.3333 19.5778 28.9833 21.2 28.2833C22.8222 27.5833 24.2333 26.6333 25.4333 25.4333C26.6333 24.2333 27.5833 22.8222 28.2833 21.2C28.9833 19.5778 29.3333 17.8444 29.3333 16C29.3333 14.1556 28.9833 12.4222 28.2833 10.8C27.5833 9.17778 26.6333 7.76667 25.4333 6.56667C24.2333 5.36667 22.8222 4.41667 21.2 3.71667C19.5778 3.01667 17.8444 2.66667 16 2.66667C14.1556 2.66667 12.4222 3.01667 10.8 3.71667C9.17777 4.41667 7.76666 5.36667 6.56666 6.56667C5.36666 7.76667 4.41666 9.17778 3.71666 10.8C3.01666 12.4222 2.66666 14.1556 2.66666 16C2.66666 17.8444 3.01666 19.5778 3.71666 21.2C4.41666 22.8222 5.36666 24.2333 6.56666 25.4333C7.76666 26.6333 9.17777 27.5833 10.8 28.2833ZM23.5667 23.5667C21.5 25.6333 18.9778 26.6667 16 26.6667C13.0222 26.6667 10.5 25.6333 8.43333 23.5667C6.36666 21.5 5.33333 18.9778 5.33333 16C5.33333 13.0222 6.36666 10.5 8.43333 8.43334C10.5 6.36667 13.0222 5.33333 16 5.33333C18.9778 5.33333 21.5 6.36667 23.5667 8.43334C25.6333 10.5 26.6667 13.0222 26.6667 16C26.6667 18.9778 25.6333 21.5 23.5667 23.5667ZM18.6376 16.929L18.9911 17.2827L20.5026 15.7721L20.1491 15.4184L19.7957 15.0648L18.2842 16.5754L18.6376 16.929ZM20.527 15.0408L20.8805 15.3945L22.392 13.8839L22.0385 13.5302L21.6851 13.1765L20.1736 14.6871L20.527 15.0408ZM22.4164 13.1526L22.7699 13.5062L23.5256 12.7509L22.7841 11.9915L22.4264 12.3408L22.0686 12.6901L22.1196 12.7423L22.063 12.7989L22.4164 13.1526ZM22.0556 11.9611L22.4134 11.6118L22.3705 11.5679L22.0212 11.2102L21.6719 10.8524L21.3183 11.206L20.9647 11.5596L20.9171 11.6071L21.2707 11.9607L21.6242 12.3143L21.6634 12.2751L21.6979 12.3104L22.0556 11.9611ZM20.8933 12.3381L20.5398 11.9845L19.0303 13.494L19.3838 13.8476L19.7374 14.2011L21.2469 12.6916L20.8933 12.3381ZM19.0064 14.2249L18.6529 13.8714L17.1434 15.3809L17.497 15.7344L17.8505 16.088L19.36 14.5785L19.0064 14.2249Z"
    fill="#1C1B1F" />
</svg>