<svg width="32" height="32" viewBox="0 0 32 32" fill="none" xmlns="http://www.w3.org/2000/svg">
  <path
    d="M12.4688 28.1125H7.13546C6.40213 28.1125 5.77435 27.8514 5.25213 27.3292C4.7299 26.8069 4.46879 26.1792 4.46879 25.4458V16.1125C4.46879 14.4458 4.78546 12.8847 5.41879 11.4292C6.05213 9.97361 6.90768 8.70694 7.98546 7.62916C9.06324 6.55138 10.3299 5.69583 11.7855 5.0625C13.241 4.42916 14.8021 4.1125 16.4688 4.1125C18.1355 4.1125 19.6966 4.42916 21.1521 5.0625C22.6077 5.69583 23.8743 6.55138 24.9521 7.62916C26.0299 8.70694 26.8855 9.97361 27.5188 11.4292C28.1521 12.8847 28.4688 14.4458 28.4688 16.1125V25.4458C28.4688 26.1792 28.2077 26.8069 27.6855 27.3292C27.1632 27.8514 26.5355 28.1125 25.8021 28.1125H20.4688V17.4458H25.8021V16.1125C25.8021 13.5125 24.8966 11.3069 23.0855 9.49583C21.2743 7.68472 19.0688 6.77916 16.4688 6.77916C13.8688 6.77916 11.6632 7.68472 9.85213 9.49583C8.04101 11.3069 7.13546 13.5125 7.13546 16.1125V17.4458H12.4688V28.1125Z"
    fill="#212121" />
</svg>