<svg width="32" height="32" viewBox="0 0 32 32" fill="none" xmlns="http://www.w3.org/2000/svg">
<path fill-rule="evenodd" clip-rule="evenodd" d="M6.66667 28C5.93333 28 5.30556 27.7389 4.78333 27.2167C4.26111 26.6944 4 26.0667 4 25.3333V6.66667C4 5.93333 4.26111 5.30556 4.78333 4.78333C5.30556 4.26111 5.93333 4 6.66667 4H25.3333C26.0667 4 26.6944 4.26111 27.2167 4.78333C27.7389 5.30556 28 5.93333 28 6.66667V14.5108C27.0854 14.2701 26.1251 14.1419 25.1349 14.1419C20.4711 14.1419 16.4714 16.9855 14.7751 21.0335L12 17.3333L8 22.6667H14.2346C14.0207 23.5324 13.9071 24.4378 13.9071 25.3696C13.9071 26.2755 14.0144 27.1563 14.217 28H6.66667ZM11.3333 13.3333C11.8889 13.3333 12.3611 13.1389 12.75 12.75C13.1389 12.3611 13.3333 11.8889 13.3333 11.3333C13.3333 10.7778 13.1389 10.3056 12.75 9.91667C12.3611 9.52778 11.8889 9.33333 11.3333 9.33333C10.7778 9.33333 10.3056 9.52778 9.91667 9.91667C9.52778 10.3056 9.33333 10.7778 9.33333 11.3333C9.33333 11.8889 9.52778 12.3611 9.91667 12.75C10.3056 13.1389 10.7778 13.3333 11.3333 13.3333Z" fill="#212121"/>
<path d="M19.5623 29.3705L21.1341 30.9422L25.1349 26.9414L29.1357 30.9422L30.7074 29.3705L26.7066 25.3696L30.7074 21.3688L29.1357 19.7971L25.1349 23.7979L21.1341 19.7971L19.5623 21.3688L23.5631 25.3696L19.5623 29.3705Z" fill="#212121"/>
</svg>
