<svg width="32" height="32" viewBox="0 0 32 32" fill="none" xmlns="http://www.w3.org/2000/svg">
<path d="M10 29.3333C8.71111 29.3333 7.61111 28.8778 6.7 27.9667C5.78889 27.0556 5.33333 25.9556 5.33333 24.6667V7.33333C5.33333 6.04444 5.78889 4.94444 6.7 4.03333C7.61111 3.12222 8.71111 2.66667 10 2.66667H26.6667V22.6667C26.1111 22.6667 25.6389 22.8611 25.25 23.25C24.8611 23.6389 24.6667 24.1111 24.6667 24.6667C24.6667 25.2222 24.8611 25.6944 25.25 26.0833C25.6389 26.4722 26.1111 26.6667 26.6667 26.6667V29.3333H10ZM10.6667 20H13.3333V5.33333H10.6667V20ZM10 26.6667H22.4333C22.3 26.3556 22.1944 26.0389 22.1167 25.7167C22.0389 25.3944 22 25.0444 22 24.6667C22 24.3111 22.0333 23.9667 22.1 23.6333C22.1667 23.3 22.2778 22.9778 22.4333 22.6667H10C9.42222 22.6667 8.94444 22.8611 8.56667 23.25C8.18889 23.6389 8 24.1111 8 24.6667C8 25.2444 8.18889 25.7222 8.56667 26.1C8.94444 26.4778 9.42222 26.6667 10 26.6667Z" fill="#212121"/>
</svg>
