<svg width="32" height="32" viewBox="0 0 32 32" fill="none" xmlns="http://www.w3.org/2000/svg">
  <path
    d="M3.48334 24.5667 C2.05 23.1667 1.33334 21.4556 1.33334 19.4333 C1.33334 17.7 1.85556 16.1556 2.9 14.8 C3.94445 13.4444 5.31111 12.5778 7 12.2 C7.55556 10.1556 8.66667 8.5 10.3333 7.23333 C12 5.96666 13.8889 5.33333 16 5.33333 C18.6 5.33333 20.8056 6.23888 22.6167 8.05 C24.4278 9.86111 25.3333 12.0667 25.3333 14.6667 C26.8667 14.8444 28.1389 15.5056 29.15 16.65 C30.1611 17.7944 30.6667 19.1333 30.6667 20.6667 C30.6667 22.3333 30.0833 23.75 28.9167 24.9167 C27.75 26.0833 26.3333 26.6667 24.6667 26.6667 L8.66667 26.6667 C6.64445 26.6667 4.91667 25.9667 3.48334 24.5667 z M14.4962 10.2991 L14.4962 19.322 L17.5038 19.322 L17.5038 10.2991 L14.4962 10.2991 z M14.9285 23.604 C15.2168 23.8922 15.5739 24.0364 16 24.0364 C16.4261 24.0364 16.7832 23.8922 17.0715 23.604 C17.3597 23.3158 17.5038 22.9586 17.5038 22.5325 C17.5038 22.1065 17.3597 21.7493 17.0715 21.4611 C16.7832 21.1728 16.4261 21.0287 16 21.0287 C15.5739 21.0287 15.2168 21.1728 14.9285 21.4611 C14.6403 21.7493 14.4962 22.1065 14.4962 22.5325 C14.4962 22.9586 14.6403 23.3158 14.9285 23.604 z"
    fill="#212121" />
</svg>
