<svg width="32" height="32" viewBox="0 0 32 32" fill="none" xmlns="http://www.w3.org/2000/svg">
<path d="M13.8 22.6667L21.3333 15.1333L19.4 13.2L13.7667 18.8333L10.9667 16.0333L9.06667 17.9333L13.8 22.6667ZM8.66667 26.6667C6.64444 26.6667 4.91667 25.9667 3.48333 24.5667C2.05 23.1667 1.33333 21.4556 1.33333 19.4333C1.33333 17.7 1.85555 16.1556 2.9 14.8C3.94444 13.4444 5.31111 12.5778 7 12.2C7.55555 10.1556 8.66667 8.49999 10.3333 7.23333C12 5.96666 13.8889 5.33333 16 5.33333C18.6 5.33333 20.8056 6.23888 22.6167 8.05C24.4278 9.86111 25.3333 12.0667 25.3333 14.6667C26.8667 14.8444 28.1389 15.5056 29.15 16.65C30.1611 17.7944 30.6667 19.1333 30.6667 20.6667C30.6667 22.3333 30.0833 23.75 28.9167 24.9167C27.75 26.0833 26.3333 26.6667 24.6667 26.6667H8.66667Z" fill="#212121"/>
</svg>
