<svg width="32" height="32" viewBox="0 0 32 32" fill="none" xmlns="http://www.w3.org/2000/svg">
  <path
    d="M 8.6667 26.6667 C 6.6444 26.6667 4.9167 25.9667 3.4833 24.5667 C 2.05 23.1667 1.3333 21.4556 1.3333 19.4333 C 1.3333 17.7 1.8556 16.1556 2.9 14.8 C 3.9444 13.4444 5.3111 12.5778 7 12.2 C 7.5556 10.1556 8.6667 8.5 10.3333 7.2333 C 12 5.9667 13.8889 5.3333 16 5.3333 C 18.6 5.3333 20.8056 6.2389 22.6167 8.05 C 24.4278 9.8611 25.3333 12.0667 25.3333 14.6667 C 26.8667 14.8444 28.1389 15.5056 29.15 16.65 C 30.1611 17.7944 30.6667 19.1333 30.6667 20.6667 C 30.6667 22.3333 30.0833 23.75 28.9167 24.9167 C 27.75 26.0833 26.3333 26.6667 24.6667 26.6667 H 8.6667 Z"
    fill="#212121" />
</svg>