<svg width="32" height="32" viewBox="0 0 32 32" fill="none" xmlns="http://www.w3.org/2000/svg">
<path d="M5.33334 28V15.5L2.93334 17.3333L1.33334 15.2L16 4L30.6667 15.2L29.0667 17.3L26.6667 15.5V28H5.33334ZM10.6667 20C10.2889 20 9.97223 19.8722 9.71668 19.6167C9.46112 19.3611 9.33334 19.0444 9.33334 18.6667C9.33334 18.2889 9.46112 17.9722 9.71668 17.7167C9.97223 17.4611 10.2889 17.3333 10.6667 17.3333C11.0445 17.3333 11.3611 17.4611 11.6167 17.7167C11.8722 17.9722 12 18.2889 12 18.6667C12 19.0444 11.8722 19.3611 11.6167 19.6167C11.3611 19.8722 11.0445 20 10.6667 20ZM16 20C15.6222 20 15.3056 19.8722 15.05 19.6167C14.7945 19.3611 14.6667 19.0444 14.6667 18.6667C14.6667 18.2889 14.7945 17.9722 15.05 17.7167C15.3056 17.4611 15.6222 17.3333 16 17.3333C16.3778 17.3333 16.6945 17.4611 16.95 17.7167C17.2056 17.9722 17.3333 18.2889 17.3333 18.6667C17.3333 19.0444 17.2056 19.3611 16.95 19.6167C16.6945 19.8722 16.3778 20 16 20ZM21.3333 20C20.9556 20 20.6389 19.8722 20.3833 19.6167C20.1278 19.3611 20 19.0444 20 18.6667C20 18.2889 20.1278 17.9722 20.3833 17.7167C20.6389 17.4611 20.9556 17.3333 21.3333 17.3333C21.7111 17.3333 22.0278 17.4611 22.2833 17.7167C22.5389 17.9722 22.6667 18.2889 22.6667 18.6667C22.6667 19.0444 22.5389 19.3611 22.2833 19.6167C22.0278 19.8722 21.7111 20 21.3333 20Z" fill="#212121"/>
</svg>
