<svg width="32" height="32" viewBox="0 0 32 32" fill="none" xmlns="http://www.w3.org/2000/svg">
<path d="M8 18.6667C7.26667 18.6667 6.63889 18.4056 6.11667 17.8833C5.59445 17.3611 5.33334 16.7333 5.33334 16C5.33334 15.2667 5.59445 14.6389 6.11667 14.1167C6.63889 13.5944 7.26667 13.3333 8 13.3333C8.73334 13.3333 9.36111 13.5944 9.88334 14.1167C10.4056 14.6389 10.6667 15.2667 10.6667 16C10.6667 16.7333 10.4056 17.3611 9.88334 17.8833C9.36111 18.4056 8.73334 18.6667 8 18.6667ZM16 18.6667C15.2667 18.6667 14.6389 18.4056 14.1167 17.8833C13.5944 17.3611 13.3333 16.7333 13.3333 16C13.3333 15.2667 13.5944 14.6389 14.1167 14.1167C14.6389 13.5944 15.2667 13.3333 16 13.3333C16.7333 13.3333 17.3611 13.5944 17.8833 14.1167C18.4056 14.6389 18.6667 15.2667 18.6667 16C18.6667 16.7333 18.4056 17.3611 17.8833 17.8833C17.3611 18.4056 16.7333 18.6667 16 18.6667ZM24 18.6667C23.2667 18.6667 22.6389 18.4056 22.1167 17.8833C21.5944 17.3611 21.3333 16.7333 21.3333 16C21.3333 15.2667 21.5944 14.6389 22.1167 14.1167C22.6389 13.5944 23.2667 13.3333 24 13.3333C24.7333 13.3333 25.3611 13.5944 25.8833 14.1167C26.4056 14.6389 26.6667 15.2667 26.6667 16C26.6667 16.7333 26.4056 17.3611 25.8833 17.8833C25.3611 18.4056 24.7333 18.6667 24 18.6667Z" fill="#212121"/>
</svg>
