<svg width="33" height="33" viewBox="0 0 33 33" fill="none" xmlns="http://www.w3.org/2000/svg">
<path d="M7.50924 27.5039C8.03147 28.0262 8.65924 28.2873 9.39258 28.2873H16.4571V25.6206H9.39258V9.6206H25.3926V15.7606H28.0592V9.6206C28.0592 8.88727 27.7981 8.25949 27.2759 7.73727C26.7537 7.21505 26.1259 6.95394 25.3926 6.95394H22.7259V4.28727C22.7259 3.55394 22.4648 2.92616 21.9426 2.40394C21.4204 1.88172 20.7926 1.62061 20.0592 1.62061H17.3926V4.28727H20.0592V6.95394H9.39258C8.65924 6.95394 8.03147 7.21505 7.50924 7.73727C6.98702 8.25949 6.72591 8.88727 6.72591 9.6206V20.2873H4.05924V17.6206H1.39258V20.2873C1.39258 21.0206 1.65369 21.6484 2.17591 22.1706C2.69813 22.6928 3.32591 22.9539 4.05924 22.9539H6.72591V25.6206C6.72591 26.3539 6.98702 26.9817 7.50924 27.5039Z" fill="#212121"/>
<path d="M1.39258 9.6206V14.9539H4.05924V9.6206H1.39258Z" fill="#212121"/>
<path d="M1.39258 4.28727V6.95394H4.05924V4.28727H6.72591V1.62061H4.05924C3.32591 1.62061 2.69813 1.88172 2.17591 2.40394C1.65369 2.92616 1.39258 3.55394 1.39258 4.28727Z" fill="#212121"/>
<path d="M9.39258 1.62061V4.28727H14.7259V1.62061H9.39258Z" fill="#212121"/>
<path d="M28.5139 31.4135L22.6924 25.592L21.0257 30.592L17.0257 17.2587L30.3591 21.2587L25.4257 22.992L31.1805 28.7468L28.5139 31.4135Z" fill="#212121"/>
</svg>
