<svg width="32" height="32" viewBox="0 0 32 32" fill="none" xmlns="http://www.w3.org/2000/svg">
<g>
<path d="M5.0219 27.5C4.26716 27.5 3.62105 27.2313 3.08358 26.6938C2.54611 26.1563 2.27737 25.5102 2.27737 24.7555V6.74453C2.27737 5.98978 2.54611 5.34367 3.08358 4.8062C3.62105 4.26873 4.26716 4 5.0219 4H13.2555L16 6.74453H26.9781C27.7329 6.74453 28.379 7.01326 28.9164 7.55073C29.4539 8.0882 29.7226 8.73431 29.7226 9.48905V24.7555C29.7226 25.5102 29.4539 26.1563 28.9164 26.6938C28.379 27.2313 27.7329 27.5 26.9781 27.5H5.0219ZM5.0219 24.7555H26.9781V9.48905H14.8679L12.1234 6.74453H5.0219V24.7555Z" fill="#1C1B1F"/>
<path d="M17.5213 23.0401C16.8199 23.0401 16.2195 22.7904 15.7201 22.2909C15.2206 21.7915 14.9708 21.1911 14.9708 20.4897C14.9708 19.7883 15.2206 19.1879 15.7201 18.6884C16.2195 18.1889 16.8199 17.9392 17.5213 17.9392C17.6695 17.9392 17.8064 17.9508 17.9322 17.974C18.0578 17.9973 18.1856 18.0321 18.3157 18.0786V11.9463H22.6223V14.8173H20.0718V20.4897C20.0718 21.1911 19.822 21.7915 19.3225 22.2909C18.8231 22.7904 18.2227 23.0401 17.5213 23.0401Z" fill="#1C1B1F"/>
</g>
</svg>
