<svg width="32" height="32" viewBox="0 0 32 32" fill="none" xmlns="http://www.w3.org/2000/svg">
<g>
<path d="M14.3309 22.6971H25.309V21.9423C25.309 20.9131 24.8058 20.0955 23.7995 19.4894C22.7932 18.8833 21.4667 18.5803 19.8199 18.5803C18.1732 18.5803 16.8467 18.8833 15.8404 19.4894C14.8341 20.0955 14.3309 20.9131 14.3309 21.9423V22.6971ZM19.8199 17.208C20.5747 17.208 21.2208 16.9393 21.7583 16.4018C22.2957 15.8644 22.5645 15.2182 22.5645 14.4635C22.5645 13.7088 22.2957 13.0627 21.7583 12.5252C21.2208 11.9877 20.5747 11.719 19.8199 11.719C19.0652 11.719 18.4191 11.9877 17.8816 12.5252C17.3442 13.0627 17.0754 13.7088 17.0754 14.4635C17.0754 15.2182 17.3442 15.8644 17.8816 16.4018C18.4191 16.9393 19.0652 17.208 19.8199 17.208ZM5.41119 27.5C4.65645 27.5 4.01034 27.2313 3.47287 26.6938C2.9354 26.1563 2.66666 25.5102 2.66666 24.7555V6.74453C2.66666 5.98978 2.9354 5.34367 3.47287 4.8062C4.01034 4.26873 4.65645 4 5.41119 4H13.6448L16.3893 6.74453H27.3674C28.1221 6.74453 28.7683 7.01326 29.3057 7.55073C29.8432 8.0882 30.1119 8.73431 30.1119 9.48905V24.7555C30.1119 25.5102 29.8432 26.1563 29.3057 26.6938C28.7683 27.2313 28.1221 27.5 27.3674 27.5H5.41119ZM5.41119 24.7555H27.3674V9.48905H15.2572L12.5127 6.74453H5.41119V24.7555Z" fill="#1C1B1F"/>
</g>
</svg>
