<svg width="32" height="32" viewBox="0 0 32 32" fill="none" xmlns="http://www.w3.org/2000/svg">
<g>
<path d="M14 23.1667H24.6667V22.4333C24.6667 21.4333 24.1778 20.6389 23.2 20.05C22.2222 19.4611 20.9333 19.1667 19.3333 19.1667C17.7333 19.1667 16.4444 19.4611 15.4667 20.05C14.4889 20.6389 14 21.4333 14 22.4333V23.1667ZM19.3333 17.8333C20.0667 17.8333 20.6944 17.5722 21.2167 17.05C21.7389 16.5278 22 15.9 22 15.1667C22 14.4333 21.7389 13.8056 21.2167 13.2833C20.6944 12.7611 20.0667 12.5 19.3333 12.5C18.6 12.5 17.9722 12.7611 17.45 13.2833C16.9278 13.8056 16.6667 14.4333 16.6667 15.1667C16.6667 15.9 16.9278 16.5278 17.45 17.05C17.9722 17.5722 18.6 17.8333 19.3333 17.8333ZM5.33334 27.8333C4.60001 27.8333 3.97223 27.5722 3.45001 27.05C2.92778 26.5278 2.66667 25.9 2.66667 25.1667V7.66667C2.66667 6.93333 2.92778 6.30556 3.45001 5.78333C3.97223 5.26111 4.60001 5 5.33334 5H13.3333L16 7.66667H26.6667C27.4 7.66667 28.0278 7.92778 28.55 8.45C29.0722 8.97222 29.3333 9.6 29.3333 10.3333V25.1667C29.3333 25.9 29.0722 26.5278 28.55 27.05C28.0278 27.5722 27.4 27.8333 26.6667 27.8333H5.33334ZM5.33334 25.1667H26.6667V10.3333H14.9L12.2333 7.66667H5.33334V25.1667Z" fill="#1C1B1F"/>
</g>
</svg>
