<svg width="32" height="32" viewBox="0 0 32 32" fill="none" xmlns="http://www.w3.org/2000/svg">
    <path
      d="M1.17539 26.8871C0.60013 26.3119 0.3125 25.6203 0.3125 24.8125L0.3125 7.1875C0.3125 6.37969 0.60013 5.68815 1.17539 5.11289C1.75065 4.53763 2.44219 4.25 3.25 4.25L12.0625 4.25L15 7.1875L26.75 7.1875C27.5578 7.1875 28.2493 7.47513 28.8246 8.05039C29.3999 8.62566 29.6875 9.31719 29.6875 10.125L29.6875 13L26.75 13L26.75 10.125L13.7883 10.125L10.8508 7.1875L3.25 7.1875L3.25 24.8125L11 24.8125L11 27.75L3.25 27.75C2.44219 27.75 1.75065 27.4624 1.17539 26.8871z"
      fill="#1C1B1F" />
    <path
      d="M22.0425 25.1689L26.8263 21.9797L22.0425 18.7905V25.1689ZM19.6706 27.9594C19.2321 27.9594 18.8567 27.8033 18.5444 27.491C18.2321 27.1787 18.076 26.8033 18.076 26.3648V17.5946C18.076 17.1561 18.2321 16.7807 18.5444 16.4684C18.8567 16.1561 19.2321 16 19.6706 16H28.4408C28.8793 16 29.2547 16.1561 29.567 16.4684C29.8793 16.7807 30.0354 17.1561 30.0354 17.5946V26.3648C30.0354 26.8033 29.8793 27.1787 29.567 27.491C29.2547 27.8033 28.8793 27.9594 28.4408 27.9594H19.6706ZM17.0395 31.8462C16.601 31.9127 16.209 31.8063 15.8635 31.5273C15.518 31.2482 15.3187 30.8895 15.2655 30.4509L14.1892 21.7405C14.136 21.302 14.2457 20.91 14.5181 20.5645C14.7905 20.219 15.1459 20.0197 15.5845 19.9665L16.4814 19.8669V27.1621C16.4814 27.8265 16.714 28.3913 17.179 28.8564C17.6441 29.3215 18.2089 29.554 18.8733 29.554H27.0655C26.9858 29.8729 26.8263 30.1486 26.5871 30.3812C26.3479 30.6137 26.0556 30.7499 25.7101 30.7898L17.0395 31.8462Z"
      fill="#212121" />
</svg>
