<svg width="32" height="32" viewBox="0 0 32 32" fill="none" xmlns="http://www.w3.org/2000/svg">
<path d="M10.6333 23.6667H21.3667V21.6667H10.6333V23.6667ZM10.6333 18H21.3667V16H10.6333V18ZM7.33333 29.3333C6.8 29.3333 6.33333 29.1333 5.93333 28.7333C5.53333 28.3333 5.33333 27.8667 5.33333 27.3333V4.66666C5.33333 4.13333 5.53333 3.66666 5.93333 3.26666C6.33333 2.86666 6.8 2.66666 7.33333 2.66666H19.3667L26.6667 9.96666V27.3333C26.6667 27.8667 26.4667 28.3333 26.0667 28.7333C25.6667 29.1333 25.2 29.3333 24.6667 29.3333H7.33333ZM18.3667 10.8667H24.6667L18.3667 4.66666V10.8667Z" fill="#212121"/>
</svg>
