<svg width="32" height="32" viewBox="0 0 32 32" fill="none" xmlns="http://www.w3.org/2000/svg">
<path d="M20 21.3333H25.3333V16H23.3333V19.3333H20V21.3333ZM6.66666 13.3333H8.66666V10H12V8H6.66666V13.3333ZM10.6667 28V25.3333H5.33333C4.6 25.3333 3.97222 25.0722 3.45 24.55C2.92778 24.0278 2.66666 23.4 2.66666 22.6667V6.66667C2.66666 5.93333 2.92778 5.30556 3.45 4.78333C3.97222 4.26111 4.6 4 5.33333 4H26.6667C27.4 4 28.0278 4.26111 28.55 4.78333C29.0722 5.30556 29.3333 5.93333 29.3333 6.66667V22.6667C29.3333 23.4 29.0722 24.0278 28.55 24.55C28.0278 25.0722 27.4 25.3333 26.6667 25.3333H21.3333V28H10.6667ZM5.33333 22.6667H26.6667V6.66667H5.33333V22.6667Z" fill="#212121"/>
</svg>
