<svg width="32" height="32" viewBox="0 0 32 32" fill="none" xmlns="http://www.w3.org/2000/svg">
<path fill-rule="evenodd" clip-rule="evenodd" d="M5 2C3.34315 2 2 3.34315 2 5V27C2 28.6569 3.34315 30 5 30H11.5069C11.4975 30 11.4881 29.9998 11.4787 29.9995C12.0097 29.9842 12.212 29.5841 12.212 29.2339C12.212 29.0716 12.2096 28.7904 12.2063 28.4155L12.2063 28.4148C12.2022 27.9459 12.1968 27.3308 12.1933 26.6186C8.02061 27.546 7.14057 24.5551 7.14057 24.5551C6.45805 22.7798 5.47175 22.305 5.47175 22.305C4.11294 21.3515 5.57676 21.3711 5.57676 21.3711C7.08307 21.478 7.87436 22.9559 7.87436 22.9559C9.21191 25.3077 11.3858 24.6281 12.2433 24.2355C12.3783 23.2402 12.7646 22.5633 13.1933 22.1785C9.86194 21.7937 6.36054 20.471 6.36054 14.5778C6.36054 12.8991 6.94182 11.5269 7.90436 10.4507C7.7356 10.062 7.22933 8.49808 8.03561 6.37976C8.03561 6.37976 9.29192 5.96758 12.1608 7.95676C13.3608 7.61501 14.6359 7.44544 15.911 7.43762C17.186 7.44544 18.4611 7.61501 19.6611 7.95676C22.5112 5.96758 23.7675 6.37976 23.7675 6.37976C24.5738 8.49808 24.0676 10.062 23.9175 10.4507C24.8738 11.5269 25.4551 12.8991 25.4551 14.5778C25.4551 20.4867 21.9487 21.7871 18.6111 22.1654C19.1361 22.6272 19.6236 23.5702 19.6236 25.0116C19.6236 26.3901 19.6152 27.5873 19.6096 28.3777L19.6096 28.3785V28.3785C19.6069 28.7679 19.6049 29.0586 19.6049 29.2234C19.6049 29.5817 19.8123 30.0019 20.3985 29.9827C20.3127 29.994 20.2258 29.9999 20.1382 30H27C28.6569 30 30 28.6569 30 27V5C30 3.34315 28.6569 2 27 2H5Z" fill="#212121"/>
</svg>
