<svg width="32" height="32" viewBox="0 0 32 32" fill="none" xmlns="http://www.w3.org/2000/svg">
<path d="M21.3333 28V25.3333H26.6667V12H8V17.3333H5.33334V6.66666C5.33334 5.93333 5.59445 5.30555 6.11667 4.78333C6.63889 4.26111 7.26667 3.99999 8 3.99999H9.33334V1.33333H12V3.99999H22.6667V1.33333H25.3333V3.99999H26.6667C27.4 3.99999 28.0278 4.26111 28.55 4.78333C29.0722 5.30555 29.3333 5.93333 29.3333 6.66666V25.3333C29.3333 26.0667 29.0722 26.6944 28.55 27.2167C28.0278 27.7389 27.4 28 26.6667 28H21.3333ZM12 30.6667L10.1333 28.8L13.5667 25.3333H2.66667V22.6667H13.5667L10.1333 19.2L12 17.3333L18.6667 24L12 30.6667Z" fill="#212121"/>
</svg>
