<svg width="32" height="32" viewBox="0 0 32 32" fill="none" xmlns="http://www.w3.org/2000/svg">
<path d="M5.11111 30C4.25556 30 3.52315 29.6954 2.91389 29.0861C2.30463 28.4769 2 27.7445 2 26.8889V5.11112C2 4.25556 2.30463 3.52316 2.91389 2.9139C3.52315 2.30464 4.25556 2.00001 5.11111 2.00001H26.8889C27.7444 2.00001 28.4769 2.30464 29.0861 2.9139C29.6954 3.52316 30 4.25556 30 5.11112V26.8889C30 27.7445 29.6954 28.4769 29.0861 29.0861C28.4769 29.6954 27.7444 30 26.8889 30H5.11111ZM16 16L19.8889 13.6667L23.7778 16V5.11112H16V16Z" fill="#212121"/>
</svg>
