<svg width="32" height="32" viewBox="0 0 32 32" fill="none" xmlns="http://www.w3.org/2000/svg">
<path fill-rule="evenodd" clip-rule="evenodd" d="M10.6667 24C9.9336 24 9.30599 23.7389 8.78386 23.2168C8.26172 22.6943 8.00001 22.0667 8.00001 21.3333V5.33333C8.00001 4.59993 8.26172 3.97233 8.78386 3.44987C9.30599 2.92773 9.9336 2.66666 10.6667 2.66666H26.6667C27.3997 2.66666 28.0273 2.92773 28.5495 3.44987C29.0716 3.97233 29.3333 4.59993 29.3333 5.33333V21.3333C29.3333 21.6621 29.2813 21.9697 29.1758 22.2562C29.0469 22.6084 28.8372 22.9287 28.5495 23.2168C28.0273 23.7389 27.3997 24 26.6667 24H10.6667ZM11.3607 19.4866H25.791L22.4408 14.8796L20.4124 17.1661L16.7202 12.0332L11.3607 19.4866ZM23.4962 10.3262C24.3738 10.3262 25.0851 9.61478 25.0851 8.73723C25.0851 7.85968 24.3738 7.14828 23.4962 7.14828C22.6187 7.14828 21.9073 7.85968 21.9073 8.73723C21.9073 9.61478 22.6187 10.3262 23.4962 10.3262Z" fill="#212121"/>
<path d="M5.33334 29.3333C4.60027 29.3333 3.97266 29.0723 3.45053 28.5501C2.92839 28.0277 2.66667 27.4001 2.66667 26.6667V8H5.33334V26.6667H24V29.3333H5.33334Z" fill="#212121"/>
</svg>
