<svg width="32" height="32" viewBox="0 0 32 32" fill="none" xmlns="http://www.w3.org/2000/svg">
<path d="M4.00001 28C3.26668 28 2.6389 27.7389 2.11668 27.2167C1.59445 26.6944 1.33334 26.0667 1.33334 25.3333V8H4.00001V25.3333H26.6667V28H4.00001ZM9.33334 22.6667C8.60001 22.6667 7.97223 22.4056 7.45001 21.8833C6.92779 21.3611 6.66668 20.7333 6.66668 20V5.33333C6.66668 4.6 6.92779 3.97222 7.45001 3.45C7.97223 2.92778 8.60001 2.66666 9.33334 2.66666H16L18.6667 5.33333H28C28.7333 5.33333 29.3611 5.59444 29.8833 6.11666C30.4056 6.63889 30.6667 7.26666 30.6667 8V20C30.6667 20.7333 30.4056 21.3611 29.8833 21.8833C29.3611 22.4056 28.7333 22.6667 28 22.6667H9.33334ZM12 17.3333H25.3333L20.7333 11.3333L17.6667 15.3333L15.6 12.6667L12 17.3333Z" fill="#212121"/>
</svg>
