<svg width="32" height="32" viewBox="0 0 32 32" fill="none" xmlns="http://www.w3.org/2000/svg">
  <path
    d="M8.00001 28C7.62223 28 7.30557 27.8722 7.05001 27.6167C6.79445 27.3611 6.66668 27.0445 6.66668 26.6667V25.3333H4.00001C3.26668 25.3333 2.6389 25.0722 2.11668 24.55C1.59445 24.0278 1.33334 23.4 1.33334 22.6667V6.00001C1.33334 5.26668 1.59445 4.6389 2.11668 4.11668C2.6389 3.59445 3.26668 3.33334 4.00001 3.33334H28C28.7333 3.33334 29.3611 3.59445 29.8833 4.11668C30.4056 4.6389 30.6667 5.26668 30.6667 6.00001V22.6667C30.6667 23.4 30.4056 24.0278 29.8833 24.55C29.3611 25.0722 28.7333 25.3333 28 25.3333H25.3333V26.6667C25.3333 27.0445 25.2056 27.3611 24.95 27.6167C24.6945 27.8722 24.3778 28 24 28H8.00001ZM6.66668 18H25.3333L19.3333 10L14.6667 16L11.3333 12L6.66668 18Z"
    fill="#212121" />
</svg>