<svg width="32" height="32" viewBox="0 0 32 32" fill="none" xmlns="http://www.w3.org/2000/svg">
  <path fill-rule="evenodd" clip-rule="evenodd"
    d="M10.4483 9.80657H7.20533L5.04335 5.48262C4.44881 5.48262 3.93984 5.69432 3.51646 6.1177C3.09307 6.54109 2.88138 7.05006 2.88138 7.6446V20.6164C2.88138 21.211 3.09307 21.7199 3.51646 22.1433C3.93984 22.5667 4.44881 22.7784 5.04335 22.7784H13.134C12.1112 19.8597 13.2711 16.3449 15.5611 14.5687C19.0308 11.8776 22.7311 12.93 24.5011 14.1645V7.6446C24.5011 7.05006 24.2894 6.54109 23.866 6.1177C23.4427 5.69432 22.9337 5.48262 22.3391 5.48262H19.0962L21.2582 9.80657H18.0152L15.8532 5.48262H13.6912L15.8532 9.80657H12.6103L10.4483 5.48262H8.28631L10.4483 9.80657ZM23.2537 28.8753L26.5886 21.399H28.3051L31.6401 28.8753H29.7414L28.9956 27.0767H25.8981L25.1523 28.8753H23.2537ZM18.0809 27.1684L16.8012 26.0807L20.3076 23.1002C19.9602 22.7844 19.6416 22.4319 19.3517 22.0429C19.0141 21.5898 18.7045 21.078 18.4223 20.5084L18.2793 20.2197H20.1713L20.2297 20.3164C20.4571 20.6934 20.6832 21.0197 20.9075 21.2961C21.0991 21.5323 21.325 21.7701 21.5856 22.0091C21.9111 21.7088 22.2525 21.3066 22.609 20.7986C22.9417 20.3247 23.2045 19.872 23.3992 19.4403H15.8V17.8609H20.6562V16.6816H22.4437V17.8609H27.3V19.4403H25.2296C24.9817 20.123 24.6255 20.82 24.1631 21.5312C23.7297 22.1979 23.2959 22.7332 22.8606 23.1318L24.4624 24.5217L23.776 26.1166L21.5828 24.2066L18.0809 27.1684ZM28.396 25.6448L27.4469 23.3589L26.4977 25.6448H28.396Z"
    fill="#1C1B1F" />
</svg>