<svg xmlns="http://www.w3.org/2000/svg" width="32" height="32" viewBox="0 0 32 32">
  <defs />
  <path fill="#212121"
    d="M3.45,28.55 C2.928,28.028 2.667,27.4 2.667,26.667 L2.667,14.667 C2.667,13.933 2.928,13.306 3.45,12.783 C3.972,12.261 4.6,12 5.333,12 L21.333,12 C22.067,12 22.694,12.261 23.217,12.783 C23.739,13.306 24,13.933 24,14.667 L24,26.667 C24,27.4 23.739,28.028 23.217,28.55 C22.694,29.072 22.067,29.333 21.333,29.333 L5.333,29.333 C4.6,29.333 3.972,29.072 3.45,28.55 Z M26.667,13.333 C26.667,12.222 26.278,11.278 25.5,10.5 C24.722,9.722 23.778,9.333 22.667,9.333 L8,9.333 L8,5.333 C8,4.6 8.261,3.972 8.783,3.45 C9.306,2.928 9.933,2.667 10.667,2.667 L26.667,2.667 C27.4,2.667 28.028,2.928 28.55,3.45 C29.072,3.972 29.333,4.6 29.333,5.333 L29.333,17.333 C29.333,18.067 29.072,18.694 28.55,19.217 C28.028,19.739 27.4,20 26.667,20 Z M12.203,21.797 L15.672,25.266 L17.261,23.677 L13.832,20.248 L16.772,19.215 L8.827,16.832 L11.21,24.777 Z" />
</svg>