<svg width="32" height="32" viewBox="0 0 32 32" fill="none" xmlns="http://www.w3.org/2000/svg">
  <path fill-rule="evenodd" clip-rule="evenodd"
    d="M21.546 17.4505C21.6176 16.9775 21.6548 16.4931 21.6548 16C21.6548 10.6942 17.3538 6.39319 12.048 6.39319C6.74213 6.39319 2.44116 10.6942 2.44116 16C2.44116 21.3058 6.74213 25.6068 12.048 25.6068C12.2251 25.6068 12.4011 25.602 12.5759 25.5926C12.5297 25.2602 12.5059 24.9207 12.5059 24.5757C12.5059 20.5517 15.7499 17.2855 19.7653 17.2494C19.4643 16.5561 18.9513 15.9481 18.2617 15.5408C16.811 14.6839 15.0107 14.9682 13.8713 16.1076C13.6955 16.294 13.5534 16.5024 13.4025 16.7397C13.0183 17.345 12.8357 18.0078 12.8357 18.6707C12.8357 19.3432 13.0279 20.006 13.3833 20.5825C12.9606 21.2357 12.3938 21.8025 11.6829 22.2252C9.42531 23.5702 6.51445 23.0418 4.9005 21.0724C4.87832 21.0391 4.85613 21.0066 4.83418 20.9745C4.78008 20.8953 4.72738 20.8182 4.67955 20.7362C5.77472 22.1003 7.77294 22.4942 9.33885 21.6104C10.8 20.7871 11.4533 19.0972 11.0479 17.5457C10.973 17.294 10.8606 17.0519 10.7299 16.8031C10.3975 16.1681 9.91526 15.6782 9.34077 15.3467C8.7586 15.0105 8.089 14.8462 7.41172 14.8654C7.05723 14.1728 6.84972 13.3985 6.83916 12.5713C6.80265 9.94387 8.71633 7.68723 11.2285 7.27413C11.2699 7.27155 11.3104 7.26854 11.3506 7.26556C11.4447 7.25856 11.5365 7.25175 11.6301 7.25108C9.90085 7.51719 8.5607 9.05043 8.54341 10.8488C8.52611 12.5146 9.64915 13.9172 11.1805 14.3515C11.4437 14.4158 11.73 14.4456 12.0115 14.4571C12.7281 14.4869 13.3929 14.314 13.9674 13.9826C14.5496 13.6463 15.027 13.1477 15.3489 12.5521C16.1261 12.5915 16.9004 12.799 17.6218 13.2035C19.1685 14.0684 20.126 15.6169 20.31 17.2644C20.7327 17.2916 21.1458 17.3546 21.546 17.4505Z"
    fill="#212121" />
  <path
    d="M27.1252 25.2547V23.8624L25.9201 24.5585L25.5106 23.8507L26.7157 23.1486L25.5106 22.4525L25.9201 21.7446L27.1252 22.4408V21.0426H27.9442V22.4408L29.1493 21.7446L29.5588 22.4525L28.3537 23.1486L29.5588 23.8507L29.1493 24.5585L27.9442 23.8624V25.2547H27.1252Z"
    fill="#1C1B1F" />
  <path
    d="M22.3515 25.2547V23.8624L21.1464 24.5585L20.7369 23.8507L21.942 23.1486L20.7369 22.4525L21.1464 21.7446L22.3515 22.4408V21.0426H23.1706V22.4408L24.3757 21.7446L24.7852 22.4525L23.5801 23.1486L24.7852 23.8507L24.3757 24.5585L23.1706 23.8624V25.2547H22.3515Z"
    fill="#1C1B1F" />
  <path
    d="M17.5776 25.2547V23.8624L16.3725 24.5585L15.963 23.8507L17.1681 23.1486L15.963 22.4525L16.3725 21.7446L17.5776 22.4408V21.0426H18.3967V22.4408L19.6018 21.7446L20.0113 22.4525L18.8062 23.1486L20.0113 23.8507L19.6018 24.5585L18.3967 23.8624V25.2547H17.5776Z"
    fill="#1C1B1F" />
</svg>