<svg width="32" height="32" viewBox="0 0 32 32" fill="none" xmlns="http://www.w3.org/2000/svg">
<path d="M29.3333 16C29.3333 23.364 23.364 29.3333 16 29.3333C8.636 29.3333 2.66666 23.364 2.66666 16C2.66666 8.636 8.636 2.66666 16 2.66666C23.364 2.66666 29.3333 8.636 29.3333 16ZM23.736 12.1187C22.7347 11.5573 21.66 11.2693 20.5813 11.2147C20.1347 12.0413 19.472 12.7333 18.664 13.2C17.8667 13.66 16.944 13.9 15.9493 13.8587C15.5587 13.8427 15.1613 13.8013 14.796 13.712C12.6707 13.1093 11.112 11.1627 11.136 8.85066C11.16 6.35466 13.02 4.22666 15.42 3.85733C15.2347 3.85866 15.0547 3.87733 14.8627 3.88933C11.376 4.46266 8.72 7.59466 8.77066 11.2413C8.78533 12.3893 9.07333 13.464 9.56533 14.4253C10.5053 14.3987 11.4347 14.6267 12.2427 15.0933C13.04 15.5533 13.7093 16.2333 14.1707 17.1147C14.352 17.46 14.508 17.796 14.612 18.1453C15.1747 20.2987 14.268 22.644 12.24 23.7867C10.0667 25.0133 7.29333 24.4667 5.77333 22.5733C5.86666 22.7333 5.97333 22.88 6.08 23.04C8.32 25.7733 12.36 26.5067 15.4933 24.64C16.48 24.0533 17.2667 23.2667 17.8533 22.36C17.36 21.56 17.0933 20.64 17.0933 19.7067C17.0933 18.7867 17.3467 17.8667 17.88 17.0267C18.0893 16.6973 18.2867 16.408 18.5307 16.1493C20.112 14.568 22.6107 14.1733 24.624 15.3627C26.7733 16.632 27.6867 19.3067 26.8067 21.5693C26.8987 21.408 26.972 21.2427 27.0573 21.0707C28.304 17.764 26.9187 13.8987 23.736 12.1187Z" fill="#212121"/>
</svg>
