<svg width="32" height="32" viewBox="0 0 32 32" fill="none" xmlns="http://www.w3.org/2000/svg">
<path fill-rule="evenodd" clip-rule="evenodd" d="M10.0715 27.5795C11.6937 28.2795 13.4271 28.6295 15.2715 28.6295V25.9628C12.2493 25.9406 9.71595 24.885 7.6715 22.7961C5.62706 20.7072 4.60484 18.2072 4.60484 15.2961C4.60484 14.8961 4.63262 14.4961 4.68817 14.0961C4.74373 13.6961 4.80484 13.2961 4.8715 12.8961L11.2715 19.2961H12.6048V15.2961H9.93817V12.6295H12.6048C12.9826 12.6295 13.2993 12.5017 13.5548 12.2461C13.8104 11.9906 13.9382 11.6739 13.9382 11.2961V8.62947H16.6048C17.3382 8.62947 17.966 8.36835 18.4882 7.84613C19.0104 7.32391 19.2715 6.69613 19.2715 5.9628V5.42947C20.8715 6.07391 22.2215 7.03502 23.3215 8.3128C24.4215 9.59058 25.1826 11.0406 25.6048 12.6628H28.3382C27.7382 9.59613 26.2215 7.04613 23.7882 5.0128C21.3548 2.97947 18.5159 1.9628 15.2715 1.9628C13.4271 1.9628 11.6937 2.3128 10.0715 3.0128C8.44928 3.7128 7.03817 4.6628 5.83817 5.8628C4.63817 7.0628 3.68817 8.47391 2.98817 10.0961C2.28817 11.7184 1.93817 13.4517 1.93817 15.2961C1.93817 17.1406 2.28817 18.8739 2.98817 20.4961C3.68817 22.1184 4.63817 23.5295 5.83817 24.7295C7.03817 25.9295 8.44928 26.8795 10.0715 27.5795ZM22.8048 24.3L28.5048 30L31.1382 27.3667L25.4382 21.6667L30.4715 20L17.1382 16L21.1382 29.3333L22.8048 24.3Z" fill="#212121"/>
</svg>
