<svg width="32" height="32" viewBox="0 0 32 32" fill="none" xmlns="http://www.w3.org/2000/svg">
  <path
    d="M16 29.3333C14.1778 29.3333 12.4555 28.9833 10.8333 28.2833C9.2111 27.5833 7.79443 26.6278 6.58332 25.4167C5.37221 24.2056 4.41666 22.7889 3.71666 21.1667C3.01666 19.5444 2.66666 17.8222 2.66666 16C2.66666 14.1556 3.02777 12.4222 3.74999 10.8C4.47221 9.17778 5.44999 7.76667 6.68332 6.56667C7.91666 5.36667 9.35555 4.41667 11 3.71667C12.6444 3.01667 14.4 2.66667 16.2667 2.66667C18.0444 2.66667 19.7222 2.97222 21.3 3.58333C22.8778 4.19445 24.2611 5.03889 25.45 6.11667C26.6389 7.19445 27.5833 8.47222 28.2833 9.95C28.9833 11.4278 29.3333 13.0222 29.3333 14.7333C29.3333 17.2889 28.5555 19.25 27 20.6167C25.4444 21.9833 23.5555 22.6667 21.3333 22.6667L18.8667 22.6667C18.6667 22.6667 18.5278 22.7222 18.45 22.8333C18.3722 22.9444 18.3333 23.0667 18.3333 23.2C18.3333 23.4667 18.5 23.85 18.8333 24.35C19.1667 24.85 19.3333 25.4222 19.3333 26.0667C19.3333 27.1778 19.0278 28 18.4167 28.5333C17.8055 29.0667 17 29.3333 16 29.3333zM16 26.6667C16.2 26.6667 16.3611 26.6111 16.4833 26.5C16.6055 26.3889 16.6667 26.2444 16.6667 26.0667C16.6667 25.7556 16.5 25.3889 16.1667 24.9667C15.8333 24.5444 15.6667 23.9111 15.6667 23.0667C15.6667 22.1333 15.9889 21.3889 16.6333 20.8333C17.2778 20.2778 18.0667 20 19 20L21.3333 20C22.8 20 24.0555 19.5722 25.1 18.7167C26.1444 17.8611 26.6667 16.5333 26.6667 14.7333C26.6667 12.0444 25.6389 9.80556 23.5833 8.01667C21.5278 6.22778 19.0889 5.33333 16.2667 5.33333C13.2444 5.33333 10.6667 6.36667 8.53332 8.43333C6.39999 10.5 5.33332 13.0222 5.33332 16C5.33332 18.9556 6.37221 21.4722 8.44999 23.55C10.5278 25.6278 13.0444 26.6667 16 26.6667zM12.6667 12C12.0889 12 11.6111 11.8111 11.2333 11.4333C10.8555 11.0556 10.6667 10.5778 10.6667 10C10.6667 9.42222 10.8555 8.94445 11.2333 8.56667C11.6111 8.18889 12.0889 8 12.6667 8C13.2444 8 13.7222 8.18889 14.1 8.56667C14.4778 8.94445 14.6667 9.42222 14.6667 10C14.6667 10.5778 14.4778 11.0556 14.1 11.4333C13.7222 11.8111 13.2444 12 12.6667 12zM19.3333 12C18.7555 12 18.2778 11.8111 17.9 11.4333C17.5222 11.0556 17.3333 10.5778 17.3333 10C17.3333 9.42222 17.5222 8.94445 17.9 8.56667C18.2778 8.18889 18.7555 8 19.3333 8C19.9111 8 20.3889 8.18889 20.7667 8.56667C21.1444 8.94445 21.3333 9.42222 21.3333 10C21.3333 10.5778 21.1444 11.0556 20.7667 11.4333C20.3889 11.8111 19.9111 12 19.3333 12zM23.3333 17.3333C22.7555 17.3333 22.2778 17.1444 21.9 16.7667C21.5222 16.3889 21.3333 15.9111 21.3333 15.3333C21.3333 14.7556 21.5222 14.2778 21.9 13.9C22.2778 13.5222 22.7555 13.3333 23.3333 13.3333C23.9111 13.3333 24.3889 13.5222 24.7667 13.9C25.1444 14.2778 25.3333 14.7556 25.3333 15.3333C25.3333 15.9111 25.1444 16.3889 24.7667 16.7667C24.3889 17.1444 23.9111 17.3333 23.3333 17.3333zM8.66666 17.3333C8.08888 17.3333 7.6111 17.1444 7.23332 16.7667C6.85555 16.3889 6.66666 15.9111 6.66666 15.3333C6.66666 14.7556 6.85555 14.2778 7.23332 13.9C7.6111 13.5222 8.08888 13.3333 8.66666 13.3333C9.24443 13.3333 9.72221 13.5222 10.1 13.9C10.4778 14.2778 10.6667 14.7556 10.6667 15.3333C10.6667 15.9111 10.4778 16.3889 10.1 16.7667C9.72221 17.1444 9.24443 17.3333 8.66666 17.3333z"
    fill="#1C1B1F" />
</svg>
