<svg xmlns="http://www.w3.org/2000/svg" viewBox="0 0 24 24"><path d="M13.07 5.51Q12.67 4.6 12.24 3.89Q11.81 3.17 11.21 2.48L13.07 1.52Q13.48 2.29 13.93 3.02Q14.39 3.74 14.96 4.51ZM12.41 7.7Q11.71 7.73 11.05 7.76Q10.38 7.8 9.95 7.87V5.92Q10.66 6.01 11.62 6.06Q12.57 6.11 14.1 6.11H15.98Q16.37 5.44 16.65 4.83Q16.94 4.22 17.17 3.62Q17.39 3.03 17.57 2.4Q17.75 1.76 17.94 1.0Q18.59 1.33 19.18 1.54Q19.78 1.74 20.33 1.86Q20.59 1.91 20.59 2.09Q20.59 2.26 20.28 2.43Q20.09 2.55 19.87 2.74Q19.66 2.93 19.35 3.33Q19.04 3.72 18.62 4.39Q18.2 5.06 17.61 6.11Q18.56 6.11 19.24 6.09Q19.92 6.08 20.42 6.06Q20.92 6.03 21.31 6.0Q21.69 5.96 22.05 5.92V7.87Q21.54 7.8 20.72 7.75Q19.9 7.7 19.11 7.68V12.5Q19.95 12.5 20.86 12.47Q21.78 12.43 22.48 12.33V14.29Q21.78 14.22 20.86 14.17Q19.95 14.12 19.11 14.1V18.56Q19.11 19.49 19.15 20.6Q19.18 21.71 19.28 22.86H17.11Q17.2 21.71 17.25 20.6Q17.3 19.49 17.3 18.56V14.1H14.22Q14.17 15.79 13.94 17.01Q13.72 18.23 13.19 19.22Q12.67 20.21 11.77 21.09Q10.88 21.97 9.49 23.0Q9.16 22.55 8.75 22.25Q8.35 21.95 7.73 21.66Q8.95 21.02 9.79 20.33Q10.64 19.64 11.2 18.76Q11.76 17.89 12.04 16.77Q12.31 15.65 12.38 14.12Q11.62 14.12 10.81 14.17Q10.0 14.22 9.38 14.29V12.33Q10.0 12.43 10.82 12.47Q11.64 12.5 12.41 12.5ZM14.24 7.66V12.5H17.3V7.66ZM4.75 8.28Q3.72 8.3 2.97 8.35Q2.22 8.4 1.62 8.49V6.46Q2.22 6.56 2.97 6.61Q3.72 6.66 4.75 6.66Q4.75 5.41 4.73 4.59Q4.72 3.77 4.7 3.21Q4.67 2.65 4.63 2.28Q4.58 1.91 4.48 1.55Q5.06 1.67 5.61 1.7Q6.15 1.74 6.63 1.69Q7.08 1.64 7.13 1.79Q7.18 1.93 6.89 2.31Q6.73 2.5 6.64 2.97Q6.56 3.43 6.56 3.86V6.63Q7.23 6.61 7.76 6.57Q8.3 6.54 8.73 6.46V8.49Q8.3 8.42 7.76 8.37Q7.23 8.33 6.56 8.3V11.88Q7.8 11.43 8.85 10.95Q8.73 11.62 8.75 12.02Q8.78 12.43 8.97 12.88Q8.42 13.07 7.8 13.28Q7.18 13.48 6.56 13.74V20.21Q6.56 20.8 6.43 21.22Q6.3 21.64 5.9 21.93Q5.51 22.21 4.78 22.43Q4.05 22.64 2.89 22.83Q2.77 22.26 2.59 21.69Q2.41 21.11 2.0 20.49Q2.98 20.57 3.53 20.57Q4.08 20.57 4.35 20.47Q4.63 20.38 4.69 20.17Q4.75 19.97 4.75 19.61V14.48Q3.98 14.82 3.33 15.13Q2.67 15.44 2.17 15.72Q2.05 15.17 1.89 14.55Q1.74 13.93 1.52 13.36Q2.36 13.15 3.17 12.93Q3.98 12.72 4.75 12.48Z" fill="currentColor"/></svg>