<svg width="32" height="32" viewBox="0 0 32 32" fill="none" xmlns="http://www.w3.org/2000/svg">
  <path
    d="M28 26.2V4.86667H3.99998V15.5333H1.33331V4.86667C1.33331 4.13333 1.59442 3.50556 2.11665 2.98333C2.63887 2.46111 3.26665 2.2 3.99998 2.2H28C28.7333 2.2 29.3611 2.46111 29.8833 2.98333C30.4055 3.50556 30.6666 4.13333 30.6666 4.86667V23.5333C30.6666 24.2667 30.4055 24.8944 29.8833 25.4167C29.3611 25.9389 28.7333 26.2 28 26.2Z"
    fill="#212121" />
  <path
    d="M7.0375 18.1625C7.95139 19.0764 9.05 19.5333 10.3333 19.5333C11.6167 19.5333 12.7153 19.0764 13.6292 18.1625C14.5431 17.2486 15 16.15 15 14.8667C15 13.5833 14.5431 12.4847 13.6292 11.5708C12.7153 10.6569 11.6167 10.2 10.3333 10.2C9.05 10.2 7.95139 10.6569 7.0375 11.5708C6.12361 12.4847 5.66667 13.5833 5.66667 14.8667C5.66667 16.15 6.12361 17.2486 7.0375 18.1625Z"
    fill="#212121" />
  <path
    d="M1 25.6V28.8667H19.6667V25.6C19.6667 24.9389 19.4965 24.3312 19.1562 23.7771C18.816 23.2229 18.3639 22.8 17.8 22.5083C16.5944 21.9055 15.3694 21.4535 14.125 21.1521C12.8806 20.8507 11.6167 20.7 10.3333 20.7C9.05 20.7 7.78611 20.8507 6.54167 21.1521C5.29722 21.4535 4.07222 21.9055 2.86667 22.5083C2.30278 22.8 1.85069 23.2229 1.51042 23.7771C1.17014 24.3312 1 24.9389 1 25.6Z"
    fill="#212121" />
  <path
    d="M14.3243 20.2 C14.6431 19.9816 14.9475 19.7274 15.2375 19.4375 C16.1303 18.5446 16.684 17.5146 16.8984 16.3475 L18.125 18.2 L21.45 13.2 L26 20.2 L14.3243 20.2 Z"
    fill="#212121" />
</svg>