<svg width="32" height="32" viewBox="0 0 32 32" fill="none" xmlns="http://www.w3.org/2000/svg">
  <path
    d="M6.66665 30.6667C6.28887 30.6667 5.9722 30.5389 5.71665 30.2833C5.46109 30.0278 5.33331 29.7111 5.33331 29.3333C5.33331 28.9556 5.46109 28.6389 5.71665 28.3833C5.9722 28.1278 6.28887 28 6.66665 28H12V26.6667H3.99998C3.6222 26.6667 3.30554 26.5389 3.04998 26.2833C2.79442 26.0278 2.66665 25.7111 2.66665 25.3333C2.66665 24.9556 2.79442 24.6389 3.04998 24.3833C3.30554 24.1278 3.6222 24 3.99998 24H12V22.6667H2.66665C2.28887 22.6667 1.9722 22.5389 1.71665 22.2833C1.46109 22.0278 1.33331 21.7111 1.33331 21.3333C1.33331 20.9556 1.46109 20.6389 1.71665 20.3833C1.9722 20.1278 2.28887 20 2.66665 20H12V18.6667H5.33331C4.95554 18.6667 4.63887 18.5389 4.38331 18.2833C4.12776 18.0278 3.99998 17.7111 3.99998 17.3333C3.99998 16.9556 4.12776 16.6389 4.38331 16.3833C4.63887 16.1278 4.95554 16 5.33331 16H13.4666L12.3333 14C12.0666 13.5333 11.9611 13.0389 12.0166 12.5167C12.0722 11.9944 12.2889 11.5444 12.6666 11.1667L13.6 10.2333L22.4 16.8C22.9111 17.1778 23.3055 17.6444 23.5833 18.2C23.8611 18.7556 24 19.3556 24 20V26.6667C24 27.7778 23.6111 28.7222 22.8333 29.5C22.0555 30.2778 21.1111 30.6667 20 30.6667H6.66665ZM8.99998 14.2333L8.53331 13.9C8.2222 13.6778 8.03887 13.3889 7.98331 13.0333C7.92776 12.6778 8.01109 12.3444 8.23331 12.0333C8.45554 11.7222 8.74442 11.5444 9.09998 11.5C9.45554 11.4556 9.78887 11.5444 10.1 11.7667L10.1333 11.8C10.0222 12.2 9.98331 12.6056 10.0166 13.0167C10.05 13.4278 10.1333 13.8333 10.2666 14.2333H8.99998ZM8.49998 7.23334C8.7222 6.92222 9.01109 6.74445 9.36665 6.7C9.7222 6.65556 10.0555 6.74445 10.3666 6.96667L12.4666 8.53333L11.2666 9.76667C11.1555 9.87778 11.05 9.99445 10.95 10.1167C10.85 10.2389 10.7555 10.3667 10.6666 10.5L8.76665 9.1C8.45554 8.87778 8.27776 8.58889 8.23331 8.23334C8.18887 7.87778 8.27776 7.54445 8.49998 7.23334ZM28.8 15.7L25.9666 19.4667C25.8778 18.6222 25.6278 17.8278 25.2166 17.0833C24.8055 16.3389 24.2666 15.7111 23.6 15.2L15.9 9.43334L10.1 5.1C9.78887 4.87778 9.61109 4.58889 9.56665 4.23334C9.5222 3.87778 9.61109 3.54445 9.83331 3.23334C10.0555 2.92222 10.3444 2.73889 10.7 2.68334C11.0555 2.62778 11.3889 2.71111 11.7 2.93334L19.1333 8.53333L19.9666 7.46667L14.6333 3.46667C14.3222 3.24445 14.1389 2.95556 14.0833 2.6C14.0278 2.24445 14.1111 1.91111 14.3333 1.6C14.5555 1.28889 14.8444 1.11111 15.2 1.06667C15.5555 1.02222 15.8889 1.11111 16.2 1.33334L22.7333 6.2L23.0333 3.9C23.1 3.36667 23.3111 2.91111 23.6666 2.53334C24.0222 2.15556 24.4555 1.92222 24.9666 1.83334L26.3 1.63334L29.4333 12.1667C29.6111 12.7667 29.6444 13.3778 29.5333 14C29.4222 14.6222 29.1778 15.1889 28.8 15.7Z"
    fill="#1C1B1F" />
</svg>