<svg width="32" height="32" viewBox="0 0 32 32" fill="none" xmlns="http://www.w3.org/2000/svg">
<path d="M16 29.3333C14.1556 29.3333 12.4222 28.9833 10.8 28.2833C9.17778 27.5833 7.76667 26.6333 6.56667 25.4333C5.36667 24.2333 4.41667 22.8222 3.71667 21.2C3.01667 19.5778 2.66667 17.8444 2.66667 16C2.66667 14.1556 3.01667 12.4222 3.71667 10.8C4.41667 9.17778 5.36667 7.76667 6.56667 6.56667C7.76667 5.36667 9.17778 4.41667 10.8 3.71667C12.4222 3.01667 14.1556 2.66667 16 2.66667C17.8444 2.66667 19.5778 3.01667 21.2 3.71667C22.8222 4.41667 24.2333 5.36667 25.4333 6.56667C26.6333 7.76667 27.5833 9.17778 28.2833 10.8C28.9833 12.4222 29.3333 14.1556 29.3333 16C29.3333 17.8444 28.9833 19.5778 28.2833 21.2C27.5833 22.8222 26.6333 24.2333 25.4333 25.4333C24.2333 26.6333 22.8222 27.5833 21.2 28.2833C19.5778 28.9833 17.8444 29.3333 16 29.3333ZM16 26.6667C18.9778 26.6667 21.5 25.6333 23.5667 23.5667C25.6333 21.5 26.6667 18.9778 26.6667 16C26.6667 13.0222 25.6333 10.5 23.5667 8.43334C21.5 6.36667 18.9778 5.33334 16 5.33334C13.0222 5.33334 10.5 6.36667 8.43334 8.43334C6.36667 10.5 5.33334 13.0222 5.33334 16C5.33334 18.9778 6.36667 21.5 8.43334 23.5667C10.5 25.6333 13.0222 26.6667 16 26.6667Z" fill="#212121"/>
</svg>
