<svg width="32" height="32" viewBox="0 0 32 32" fill="none" xmlns="http://www.w3.org/2000/svg">
<path d="M16 22.6667C17.8444 22.6667 19.4167 22.0167 20.7167 20.7167C22.0167 19.4167 22.6667 17.8444 22.6667 16C22.6667 14.1556 22.0167 12.5833 20.7167 11.2833C19.4167 9.98334 17.8444 9.33334 16 9.33334C14.1556 9.33334 12.5833 9.98334 11.2833 11.2833C9.98333 12.5833 9.33333 14.1556 9.33333 16C9.33333 17.8444 9.98333 19.4167 11.2833 20.7167C12.5833 22.0167 14.1556 22.6667 16 22.6667ZM16 29.3333C14.1556 29.3333 12.4222 28.9833 10.8 28.2833C9.17777 27.5833 7.76666 26.6333 6.56666 25.4333C5.36666 24.2333 4.41666 22.8222 3.71666 21.2C3.01666 19.5778 2.66666 17.8444 2.66666 16C2.66666 14.1556 3.01666 12.4222 3.71666 10.8C4.41666 9.17778 5.36666 7.76667 6.56666 6.56667C7.76666 5.36667 9.17777 4.41667 10.8 3.71667C12.4222 3.01667 14.1556 2.66667 16 2.66667C17.8444 2.66667 19.5778 3.01667 21.2 3.71667C22.8222 4.41667 24.2333 5.36667 25.4333 6.56667C26.6333 7.76667 27.5833 9.17778 28.2833 10.8C28.9833 12.4222 29.3333 14.1556 29.3333 16C29.3333 17.8444 28.9833 19.5778 28.2833 21.2C27.5833 22.8222 26.6333 24.2333 25.4333 25.4333C24.2333 26.6333 22.8222 27.5833 21.2 28.2833C19.5778 28.9833 17.8444 29.3333 16 29.3333ZM16 26.6667C18.9778 26.6667 21.5 25.6333 23.5667 23.5667C25.6333 21.5 26.6667 18.9778 26.6667 16C26.6667 13.0222 25.6333 10.5 23.5667 8.43334C21.5 6.36667 18.9778 5.33334 16 5.33334C13.0222 5.33334 10.5 6.36667 8.43333 8.43334C6.36666 10.5 5.33333 13.0222 5.33333 16C5.33333 18.9778 6.36666 21.5 8.43333 23.5667C10.5 25.6333 13.0222 26.6667 16 26.6667Z" fill="#212121"/>
</svg>
