<svg width="32" height="32" viewBox="0 0 32 32" fill="none" xmlns="http://www.w3.org/2000/svg">
<path d="M16 29.3333C17.6667 29.3333 19.2278 29.0167 20.6833 28.3833C22.1389 27.75 23.4056 26.8944 24.4833 25.8167C25.5611 24.7389 26.4167 23.4722 27.05 22.0167C27.6833 20.5611 28 19 28 17.3333H25.3333C25.3333 19.9333 24.4278 22.1389 22.6167 23.95C20.8056 25.7611 18.6 26.6667 16 26.6667C13.4 26.6667 11.1944 25.7611 9.38333 23.95C7.57222 22.1389 6.66667 19.9333 6.66667 17.3333C6.66667 14.7333 7.57222 12.5278 9.38333 10.7167C11.1944 8.90555 13.4 8 16 8H16.2L14.1333 10.0667L16 12L21.3333 6.66666L16 1.33333L14.1333 3.26666L16.2 5.33333H16C14.3333 5.33333 12.7722 5.65 11.3167 6.28333C9.86111 6.91666 8.59444 7.77222 7.51667 8.85C6.43889 9.92777 5.58333 11.1944 4.95 12.65C4.31667 14.1056 4 15.6667 4 17.3333C4 19 4.31667 20.5611 4.95 22.0167C5.58333 23.4722 6.43889 24.7389 7.51667 25.8167C8.59444 26.8944 9.86111 27.75 11.3167 28.3833C12.7722 29.0167 14.3333 29.3333 16 29.3333Z" fill="#212121"/>
</svg>
