<svg width="32" height="32" viewBox="0 0 32 32" fill="none" xmlns="http://www.w3.org/2000/svg">
<path d="M14.6667 27.9333C11.9778 27.6 9.75001 26.4278 7.98334 24.4167C6.21668 22.4056 5.33334 20.0444 5.33334 17.3333C5.33334 15.8667 5.62223 14.4611 6.20001 13.1167C6.77779 11.7722 7.60001 10.6 8.66668 9.6L10.5667 11.5C9.72223 12.2556 9.08334 13.1333 8.65001 14.1333C8.21668 15.1333 8.00001 16.2 8.00001 17.3333C8.00001 19.2889 8.62223 21.0167 9.86668 22.5167C11.1111 24.0167 12.7111 24.9333 14.6667 25.2667V27.9333ZM17.3333 27.9333V25.2667C19.2667 24.9111 20.8611 23.9889 22.1167 22.5C23.3722 21.0111 24 19.2889 24 17.3333C24 15.1111 23.2222 13.2222 21.6667 11.6667C20.1111 10.1111 18.2222 9.33333 16 9.33333H15.9L17.3667 10.8L15.5 12.6667L10.8333 7.99999L15.5 3.33333L17.3667 5.19999L15.9 6.66666H16C18.9778 6.66666 21.5 7.7 23.5667 9.76666C25.6333 11.8333 26.6667 14.3555 26.6667 17.3333C26.6667 20.0222 25.7833 22.3722 24.0167 24.3833C22.25 26.3944 20.0222 27.5778 17.3333 27.9333Z" fill="#212121"/>
</svg>
