<svg width="32" height="32" viewBox="0 0 32 32" fill="none" xmlns="http://www.w3.org/2000/svg">
  <path
    d="M5.33332 29.3333C4.59999 29.3333 3.97221 29.0722 3.44999 28.55C2.92777 28.0278 2.66666 27.4 2.66666 26.6667V21.3333H5.33332V26.6667H10.6667V29.3333H5.33332ZM2.66666 10.6667V5.33334C2.66666 4.60001 2.92777 3.97223 3.44999 3.45001C3.97221 2.92779 4.59999 2.66668 5.33332 2.66668H10.6667V5.33334H5.33332V10.6667H2.66666ZM21.3333 29.3333V26.6667H26.6667V21.3333H29.3333V26.6667C29.3333 27.4 29.0722 28.0278 28.55 28.55C28.0278 29.0722 27.4 29.3333 26.6667 29.3333H21.3333ZM26.6667 10.6667V5.33334H21.3333V2.66668H26.6667C27.4 2.66668 28.0278 2.92779 28.55 3.45001C29.0722 3.97223 29.3333 4.60001 29.3333 5.33334V10.6667H26.6667ZM16 16C14.8667 16 13.9167 15.6167 13.15 14.85C12.3833 14.0833 12 13.1333 12 12C12 10.8889 12.3833 9.94445 13.15 9.16668C13.9167 8.3889 14.8667 8.00001 16 8.00001C17.1111 8.00001 18.0555 8.3889 18.8333 9.16668C19.6111 9.94445 20 10.8889 20 12C20 13.1333 19.6111 14.0833 18.8333 14.85C18.0555 15.6167 17.1111 16 16 16ZM7.99999 24V21.4667C7.99999 21 8.11666 20.5611 8.34999 20.15C8.58332 19.7389 8.89999 19.4111 9.29999 19.1667C10.3222 18.5667 11.3944 18.1111 12.5167 17.8C13.6389 17.4889 14.8 17.3333 16 17.3333C17.2 17.3333 18.3611 17.4889 19.4833 17.8C20.6055 18.1111 21.6778 18.5667 22.7 19.1667C23.1 19.4111 23.4167 19.7389 23.65 20.15C23.8833 20.5611 24 21 24 21.4667V24H7.99999Z"
    fill="#212121" />
</svg>