<svg width="32" height="32" viewBox="0 0 32 32" fill="none" xmlns="http://www.w3.org/2000/svg">
<path d="M15.667 5C18.2669 5.00008 20.4722 5.90576 22.2832 7.7168C24.0942 9.52783 24.9999 11.7331 25 14.333C26.5332 14.5108 27.8053 15.1721 28.8164 16.3164C29.8274 17.4608 30.3329 18.7998 30.333 20.333C30.333 21.9997 29.7497 23.4163 28.583 24.583C27.4163 25.7497 25.9997 26.333 24.333 26.333H8.33301C6.31103 26.3329 4.5836 25.6332 3.15039 24.2334C1.71706 22.8334 1 21.1218 1 19.0996C1.00008 17.3665 1.52215 15.8222 2.56641 14.4668C3.61085 13.1112 4.9781 12.244 6.66699 11.8662C7.22257 9.82208 8.33358 8.16693 10 6.90039C11.6667 5.63372 13.5559 5 15.667 5ZM12 23L22 16.5L12 10V23Z" fill="#212121"/>
</svg>
