<svg width="32" height="32" viewBox="0 0 32 32" fill="none" xmlns="http://www.w3.org/2000/svg">
<path d="M12.6667 22L22 16L12.6667 10V22ZM5.33332 26.6667C4.59999 26.6667 3.97221 26.4056 3.44999 25.8833C2.92777 25.3611 2.66666 24.7333 2.66666 24V7.99999C2.66666 7.26666 2.92777 6.63888 3.44999 6.11666C3.97221 5.59444 4.59999 5.33333 5.33332 5.33333H26.6667C27.4 5.33333 28.0278 5.59444 28.55 6.11666C29.0722 6.63888 29.3333 7.26666 29.3333 7.99999V24C29.3333 24.7333 29.0722 25.3611 28.55 25.8833C28.0278 26.4056 27.4 26.6667 26.6667 26.6667H5.33332Z" fill="#212121"/>
</svg>
