<svg width="32" height="32" viewBox="0 0 32 32" fill="none" xmlns="http://www.w3.org/2000/svg">
  <path
    d="M24 13.3333H17.1333L9.13332 5.33333H26.6667C27.4 5.33333 28.0278 5.59444 28.55 6.11666C29.0722 6.63889 29.3333 7.26666 29.3333 8V23.8667C29.3333 24.1111 29.3111 24.3444 29.2667 24.5667C29.2222 24.7889 29.1333 25 29 25.2L19.8 16H24V13.3333ZM27.4 31.1333L22.8667 26.6667H5.33332C4.59999 26.6667 3.97221 26.4056 3.44999 25.8833C2.92776 25.3611 2.66665 24.7333 2.66665 24V8C2.66665 7.26666 2.92776 6.63889 3.44999 6.11666C3.97221 5.59444 4.59999 5.33333 5.33332 5.33333V9.06666L0.866653 4.6L2.73332 2.73333L29.2667 29.2667L27.4 31.1333ZM7.99999 16H10.6667V14.4L9.59999 13.3333H7.99999V16ZM14.8667 18.6667H7.99999V21.3333H17.5333L14.8667 18.6667Z"
    fill="#1C1B1F" />
</svg>