<svg width="32" height="32" viewBox="0 0 32 32" fill="none" xmlns="http://www.w3.org/2000/svg">
<path d="M20.4 22.2667L22.2667 20.4L17.3333 15.4667V9.33334H14.6667V16.5333L20.4 22.2667ZM16 29.3333C14.1556 29.3333 12.4222 28.9833 10.8 28.2833C9.17778 27.5833 7.76667 26.6333 6.56667 25.4333C5.36667 24.2333 4.41667 22.8222 3.71667 21.2C3.01667 19.5778 2.66667 17.8444 2.66667 16C2.66667 14.1556 3.01667 12.4222 3.71667 10.8C4.41667 9.17778 5.36667 7.76667 6.56667 6.56667C7.76667 5.36667 9.17778 4.41667 10.8 3.71667C12.4222 3.01667 14.1556 2.66667 16 2.66667C17.8444 2.66667 19.5778 3.01667 21.2 3.71667C22.8222 4.41667 24.2333 5.36667 25.4333 6.56667C26.6333 7.76667 27.5833 9.17778 28.2833 10.8C28.9833 12.4222 29.3333 14.1556 29.3333 16C29.3333 17.8444 28.9833 19.5778 28.2833 21.2C27.5833 22.8222 26.6333 24.2333 25.4333 25.4333C24.2333 26.6333 22.8222 27.5833 21.2 28.2833C19.5778 28.9833 17.8444 29.3333 16 29.3333ZM16 26.6667C18.9556 26.6667 21.4722 25.6278 23.55 23.55C25.6278 21.4722 26.6667 18.9556 26.6667 16C26.6667 13.0444 25.6278 10.5278 23.55 8.45001C21.4722 6.37223 18.9556 5.33334 16 5.33334C13.0444 5.33334 10.5278 6.37223 8.45 8.45001C6.37222 10.5278 5.33333 13.0444 5.33333 16C5.33333 18.9556 6.37222 21.4722 8.45 23.55C10.5278 25.6278 13.0444 26.6667 16 26.6667Z" fill="#212121"/>
</svg>
