<svg width="32" height="32" viewBox="0 0 32 32" fill="none" xmlns="http://www.w3.org/2000/svg">
  <path
    d="M25.2 28L17.9 20.7L20.7 17.9L28 25.2L25.2 28ZM6.80001 28L4.00001 25.2L13.2 16L10.9333 13.7333L10 14.6667L8.30001 12.9667V15.7L7.36668 16.6333L3.33334 12.6L4.26668 11.6667H7.00001L5.33334 10L10.0667 5.26667C10.5111 4.82222 10.9889 4.5 11.5 4.3C12.0111 4.1 12.5333 4 13.0667 4C13.6 4 14.1222 4.1 14.6333 4.3C15.1445 4.5 15.6222 4.82222 16.0667 5.26667L13 8.33333L14.6667 10L13.7333 10.9333L16 13.2L19 10.2C18.9111 9.95556 18.8389 9.7 18.7833 9.43333C18.7278 9.16667 18.7 8.9 18.7 8.63333C18.7 7.32222 19.15 6.21667 20.05 5.31667C20.95 4.41667 22.0556 3.96667 23.3667 3.96667C23.7 3.96667 24.0167 4 24.3167 4.06667C24.6167 4.13333 24.9222 4.23333 25.2333 4.36667L21.9333 7.66667L24.3333 10.0667L27.6333 6.76667C27.7889 7.07778 27.8945 7.38333 27.95 7.68333C28.0056 7.98333 28.0333 8.3 28.0333 8.63333C28.0333 9.94445 27.5833 11.05 26.6833 11.95C25.7833 12.85 24.6778 13.3 23.3667 13.3C23.1 13.3 22.8333 13.2778 22.5667 13.2333C22.3 13.1889 22.0445 13.1111 21.8 13L6.80001 28Z"
    fill="#1C1B1F" />
</svg>