<svg width="32" height="32" viewBox="0 0 32 32" fill="none" xmlns="http://www.w3.org/2000/svg">
<g>
<path d="M26.3667 30.1667L22.3667 26.1667C21.4333 26.7444 20.4333 27.1944 19.3667 27.5167C18.3 27.8389 17.1778 28 16 28C14.3333 28 12.7722 27.6833 11.3167 27.05C9.86112 26.4167 8.59446 25.5611 7.51668 24.4833C6.4389 23.4056 5.58334 22.1389 4.95001 20.6833C4.31668 19.2278 4.00001 17.6667 4.00001 16C4.00001 14.8222 4.16112 13.7 4.48334 12.6333C4.80557 11.5667 5.25557 10.5667 5.83334 9.63333L1.83334 5.63333L3.73334 3.73333L28.2667 28.2667L26.3667 30.1667ZM16 25.3333C16.8 25.3333 17.5722 25.2389 18.3167 25.05C19.0611 24.8611 19.7667 24.5889 20.4333 24.2333L7.76668 11.5667C7.41112 12.2333 7.1389 12.9389 6.95001 13.6833C6.76112 14.4278 6.66668 15.2 6.66668 16C6.66668 18.6 7.57223 20.8056 9.38334 22.6167C11.1945 24.4278 13.4 25.3333 16 25.3333ZM20 13.3333V10.6667H23.6667C22.7556 9.42222 21.6333 8.44444 20.3 7.73333C18.9667 7.02222 17.5333 6.66667 16 6.66667C15.2 6.66667 14.4278 6.76111 13.6833 6.95C12.9389 7.13889 12.2333 7.41111 11.5667 7.76667L9.63334 5.83333C10.5667 5.25556 11.5667 4.80556 12.6333 4.48333C13.7 4.16111 14.8222 4 16 4C17.8222 4 19.55 4.38889 21.1833 5.16667C22.8167 5.94444 24.2 7.04444 25.3333 8.46667V5.33333H28V13.3333H20ZM17.3333 13.5333L14.6667 10.8667V9.33333H17.3333V13.5333ZM26.1667 22.3667L24.2333 20.4333C24.4778 19.9444 24.6833 19.4444 24.85 18.9333C25.0167 18.4222 25.1333 17.8889 25.2 17.3333H27.9333C27.8222 18.2667 27.6167 19.1556 27.3167 20C27.0167 20.8444 26.6333 21.6333 26.1667 22.3667Z" fill="#212121"/>
</g>
</svg>
