<svg width="32" height="32" viewBox="0 0 32 32" fill="none" xmlns="http://www.w3.org/2000/svg">
  <path
    d="M1.33333 28L16 2.66666L30.6667 28H1.33333ZM16 24C16.3778 24 16.6944 23.8722 16.95 23.6167C17.2056 23.3611 17.3333 23.0444 17.3333 22.6667C17.3333 22.2889 17.2056 21.9722 16.95 21.7167C16.6944 21.4611 16.3778 21.3333 16 21.3333C15.6222 21.3333 15.3056 21.4611 15.05 21.7167C14.7944 21.9722 14.6667 22.2889 14.6667 22.6667C14.6667 23.0444 14.7944 23.3611 15.05 23.6167C15.3056 23.8722 15.6222 24 16 24ZM14.6667 20H17.3333V13.3333H14.6667V20Z"
    fill="#1C1B1F" />
</svg>
