<svg width="32" height="32" viewBox="0 0 32 32" fill="none" xmlns="http://www.w3.org/2000/svg">
<g>
<path d="M16.8812 22.9031L20.2594 20.3328L23.6375 22.9031L22.3891 18.7172L25.7672 16H21.5812L20.2594 11.8875L18.9375 16H14.7516L18.1297 18.7172L16.8812 22.9031ZM4.25 27.75C3.44219 27.75 2.75065 27.4624 2.17539 26.8871C1.60013 26.3119 1.3125 25.6203 1.3125 24.8125V7.1875C1.3125 6.37969 1.60013 5.68815 2.17539 5.11289C2.75065 4.53763 3.44219 4.25 4.25 4.25H13.0625L16 7.1875H27.75C28.5578 7.1875 29.2493 7.47513 29.8246 8.05039C30.3999 8.62566 30.6875 9.31719 30.6875 10.125V24.8125C30.6875 25.6203 30.3999 26.3119 29.8246 26.8871C29.2493 27.4624 28.5578 27.75 27.75 27.75H4.25ZM4.25 24.8125H27.75V10.125H14.7883L11.8508 7.1875H4.25V24.8125Z" fill="#1C1B1F"/>
</g>
</svg>
