<svg width="32" height="32" viewBox="0 0 32 32" fill="none" xmlns="http://www.w3.org/2000/svg">
<g>
<path fill-rule="evenodd" clip-rule="evenodd" d="M1.17539 26.8871C1.75065 27.4624 2.44219 27.75 3.25 27.75H11V24.8125H3.25V7.1875H10.8508L13.7883 10.125H26.75V16H29.6875V10.125C29.6875 9.31719 29.3999 8.62566 28.8246 8.05039C28.2493 7.47513 27.5578 7.1875 26.75 7.1875H15L12.0625 4.25H3.25C2.44219 4.25 1.75065 4.53763 1.17539 5.11289C0.60013 5.68815 0.3125 6.37969 0.3125 7.1875V24.8125C0.3125 25.6203 0.60013 26.3119 1.17539 26.8871Z" fill="#1C1B1F"/>
<path d="M23 27.4014C23.9836 27.4014 24.8196 27.0707 25.5081 26.4093C26.1966 25.7479 26.5408 24.9448 26.5408 24C26.5408 23.0552 26.1966 22.2521 25.5081 21.5907C24.8196 20.9293 23.9836 20.5986 23 20.5986C22.0164 20.5986 21.1804 20.9293 20.4919 21.5907C19.8034 22.2521 19.4592 23.0552 19.4592 24C19.4592 24.9448 19.8034 25.7479 20.4919 26.4093C21.1804 27.0707 22.0164 27.4014 23 27.4014ZM23.002 25.8165C22.4773 25.8165 22.0306 25.6401 21.662 25.2872C21.2933 24.9344 21.109 24.5059 21.109 24.0019C21.109 23.4979 21.2927 23.0688 21.66 22.7147C22.0273 22.3605 22.4733 22.1835 22.998 22.1835C23.5227 22.1835 23.9694 22.3599 24.338 22.7128C24.7067 23.0656 24.891 23.4941 24.891 23.9981C24.891 24.5021 24.7073 24.9312 24.34 25.2853C23.9727 25.6395 23.5267 25.8165 23.002 25.8165ZM23 30C20.9964 30 19.18 29.4511 17.5507 28.3532C15.9214 27.2553 14.7378 25.8042 14 24C14.7378 22.1958 15.9214 20.7447 17.5507 19.6468C19.18 18.5489 20.9964 18 23 18C25.0036 18 26.82 18.5489 28.4493 19.6468C30.0786 20.7447 31.2622 22.1958 32 24C31.2622 25.8042 30.0786 27.2553 28.4493 28.3532C26.82 29.4511 25.0036 30 23 30Z" fill="#1C1B1F"/>
</g>
</svg>
