<svg width="32" height="32" viewBox="0 0 32 32" fill="none" xmlns="http://www.w3.org/2000/svg">
    <path
      d="M1.17539 26.8871C0.60013 26.3119 0.3125 25.6203 0.3125 24.8125L0.3125 7.1875C0.3125 6.37969 0.60013 5.68815 1.17539 5.11289C1.75065 4.53763 2.44219 4.25 3.25 4.25L12.0625 4.25L15 7.1875L26.75 7.1875C27.5578 7.1875 28.2493 7.47513 28.8246 8.05039C29.3999 8.62566 29.6875 9.31719 29.6875 10.125L29.6875 13L26.75 13L26.75 10.125L13.7883 10.125L10.8508 7.1875L3.25 7.1875L3.25 24.8125L5 24.8125L5 27.75L3.25 27.75C2.44219 27.75 1.75065 27.4624 1.17539 26.8871z"
      fill="#1C1B1F" />
    <path
      d="M19.5 26.5351C20.8661 26.5351 22.0272 26.0942 22.9835 25.2124C23.9397 24.3306 24.4178 23.2598 24.4178 22C24.4178 20.7402 23.9397 19.6694 22.9835 18.7876C22.0272 17.9058 20.8661 17.4649 19.5 17.4649C18.1339 17.4649 16.9728 17.9058 16.0165 18.7876C15.0603 19.6694 14.5822 20.7402 14.5822 22C14.5822 23.2598 15.0603 24.3306 16.0165 25.2124C16.9728 26.0942 18.1339 26.5351 19.5 26.5351ZM19.5027 24.422C18.774 24.422 18.1536 24.1868 17.6416 23.7163C17.1296 23.2458 16.8736 22.6746 16.8736 22.0025C16.8736 21.3305 17.1287 20.7584 17.6389 20.2862C18.1491 19.8141 18.7685 19.578 19.4973 19.578C20.226 19.578 20.8464 19.8132 21.3584 20.2837C21.8704 20.7542 22.1264 21.3254 22.1264 21.9975C22.1264 22.6695 21.8713 23.2416 21.3611 23.7138C20.8509 24.1859 20.2315 24.422 19.5027 24.422ZM19.5 30C16.7172 30 14.1944 29.2681 11.9315 27.8042C9.66855 26.3404 8.02473 24.4056 7 22C8.02473 19.5944 9.66855 17.6596 11.9315 16.1958C14.1944 14.7319 16.7172 14 19.5 14C22.2828 14 24.8056 14.7319 27.0685 16.1958C29.3314 17.6596 30.9753 19.5944 32 22C30.9753 24.4056 29.3314 26.3404 27.0685 27.8042C24.8056 29.2681 22.2828 30 19.5 30Z"
      fill="#1C1B1F" />
</svg>
