<svg width="32" height="32" viewBox="0 0 32 32" fill="none" xmlns="http://www.w3.org/2000/svg">
<path d="M4.16667 28C3.43333 28 2.80556 27.7389 2.28333 27.2167C1.76111 26.6944 1.5 26.0667 1.5 25.3333V6.66667C1.5 5.93333 1.76111 5.30556 2.28333 4.78333C2.80556 4.26111 3.43333 4 4.16667 4H27.8333C28.5667 4 29.1944 4.26111 29.7167 4.78333C30.2389 5.30556 30.5 5.93333 30.5 6.66667V25.3333C30.5 26.0667 30.2389 26.6944 29.7167 27.2167C29.1944 27.7389 28.5667 28 27.8333 28H4.16667ZM4.16667 25.3333H27.8333V10.6667H4.16667V25.3333Z" fill="#212121"/>
</svg>
